STARTFONT 2.3
FONT -FontForge-Syncopate-Book-R-Normal--12-120-72-72-P-89-ISO10646-1
SIZE 12 72 72  4
FONTBOUNDINGBOX 23 14 -3 -3
COMMENT "Generated by fontforge, http://fontforge.sourceforge.net"
COMMENT "Copyright (c) 2010 by Brian J. Bonislawsky DBA Astigmatic (AOETI). All rights reserved. Available under the Apache 2.0 licence.http://www.apache.org/licenses/LICENSE-2.0.html"
STARTPROPERTIES 40
FOUNDRY "FontForge"
FAMILY_NAME "Syncopate"
WEIGHT_NAME "Book"
SLANT "R"
SETWIDTH_NAME "Normal"
ADD_STYLE_NAME ""
PIXEL_SIZE 12
POINT_SIZE 120
RESOLUTION_X 72
RESOLUTION_Y 72
SPACING "P"
AVERAGE_WIDTH 89
CHARSET_REGISTRY "ISO10646"
CHARSET_ENCODING "1"
FONTNAME_REGISTRY ""
CHARSET_COLLECTIONS "ISO8859-2 ISO8859-9 ISO8859-4 ISO10646-1"
BITS_PER_PIXEL 4
FONT_NAME "Syncopate-Regular"
FACE_NAME "Syncopate Regular"
COPYRIGHT "Copyright (c) 2010 by Brian J. Bonislawsky DBA Astigmatic (AOETI). All rights reserved. Available under the Apache 2.0 licence.http://www.apache.org/licenses/LICENSE-2.0.html"
FONT_VERSION "001.001"
FONT_ASCENT 10
FONT_DESCENT 2
UNDERLINE_POSITION -1
UNDERLINE_THICKNESS 1
X_HEIGHT 7
CAP_HEIGHT 7
RAW_ASCENT 799
RAW_DESCENT 200
NORM_SPACE 5
RELATIVE_WEIGHT 40
RELATIVE_SETWIDTH 70
SUPERSCRIPT_X 0
SUPERSCRIPT_Y 3
SUPERSCRIPT_SIZE 2
SUBSCRIPT_X 0
SUBSCRIPT_Y 3
SUBSCRIPT_SIZE 2
AVG_LOWERCASE_WIDTH 102
AVG_UPPERCASE_WIDTH 98
ENDPROPERTIES
CHARS 370
STARTCHAR space
ENCODING 32
SWIDTH 375 0
DWIDTH 5 0
BBX 1 1 0 0
BITMAP
00
ENDCHAR
STARTCHAR exclam
ENCODING 33
SWIDTH 274 0
DWIDTH 3 0
BBX 2 8 1 0
BITMAP
C1
C1
B1
A0
90
80
00
C1
ENDCHAR
STARTCHAR quotedbl
ENCODING 34
SWIDTH 290 0
DWIDTH 3 0
BBX 3 2 0 6
BITMAP
84B0
73A0
ENDCHAR
STARTCHAR numbersign
ENCODING 35
SWIDTH 701 0
DWIDTH 8 0
BBX 8 8 0 0
BITMAP
00090090
00170180
0BFFFFFC
00720720
00900900
6FFFFFF2
01701700
05305400
ENDCHAR
STARTCHAR dollar
ENCODING 36
SWIDTH 767 0
DWIDTH 9 0
BBX 8 10 1 -1
BITMAP
00090000
2AEFFF90
C5190000
C1090000
4DBC3000
004CBC50
000901B2
000913C2
FFFFEB40
00090000
ENDCHAR
STARTCHAR percent
ENCODING 37
SWIDTH 992 0
DWIDTH 12 0
BBX 11 8 0 0
BITMAP
08ED6001A100
4912B1092000
4911B1750000
08ED64700000
0000292BEC20
0001A19404A0
000A209404A0
0074002BEC20
ENDCHAR
STARTCHAR ampersand
ENCODING 38
SWIDTH 926 0
DWIDTH 11 0
BBX 10 8 1 0
BITMAP
03CEE90000
0B411A3000
0920660000
02DA200000
582A5000A0
A000780460
D61004BB00
2AEFEC6781
ENDCHAR
STARTCHAR quotesingle
ENCODING 39
SWIDTH 140 0
DWIDTH 2 0
BBX 2 2 0 6
BITMAP
84
73
ENDCHAR
STARTCHAR parenleft
ENCODING 40
SWIDTH 420 0
DWIDTH 5 0
BBX 3 10 1 -1
BITMAP
0380
1B10
7500
B000
B000
B000
B000
7500
1B10
0380
ENDCHAR
STARTCHAR parenright
ENCODING 41
SWIDTH 420 0
DWIDTH 5 0
BBX 4 10 1 -1
BITMAP
8400
1B10
0480
00C0
00B1
00B1
00C0
0480
1B10
8400
ENDCHAR
STARTCHAR asterisk
ENCODING 42
SWIDTH 503 0
DWIDTH 6 0
BBX 6 5 0 3
BITMAP
004500
1A67A2
01DD10
1A67A2
004500
ENDCHAR
STARTCHAR plus
ENCODING 43
SWIDTH 634 0
DWIDTH 8 0
BBX 6 7 1 1
BITMAP
008200
008200
008200
FFFFF9
008200
008200
008200
ENDCHAR
STARTCHAR comma
ENCODING 44
SWIDTH 185 0
DWIDTH 2 0
BBX 2 2 0 -1
BITMAP
58
93
ENDCHAR
STARTCHAR hyphen
ENCODING 45
SWIDTH 540 0
DWIDTH 6 0
BBX 5 1 1 4
BITMAP
FFFF80
ENDCHAR
STARTCHAR period
ENCODING 46
SWIDTH 185 0
DWIDTH 2 0
BBX 2 1 0 0
BITMAP
69
ENDCHAR
STARTCHAR slash
ENCODING 47
SWIDTH 500 0
DWIDTH 6 0
BBX 6 8 0 0
BITMAP
000092
000290
000920
002900
009200
029000
092000
290000
ENDCHAR
STARTCHAR zero
ENCODING 48
SWIDTH 833 0
DWIDTH 10 0
BBX 10 8 0 0
BITMAP
004BEEB400
05C5114C50
1C100001C0
3800000083
3800000083
1C100001C0
05C4114C50
004BEEB400
ENDCHAR
STARTCHAR one
ENCODING 49
SWIDTH 339 0
DWIDTH 4 0
BBX 3 8 0 0
BITMAP
FFA0
01A0
01A0
01A0
01A0
01A0
01A0
01A0
ENDCHAR
STARTCHAR two
ENCODING 50
SWIDTH 728 0
DWIDTH 9 0
BBX 8 8 0 0
BITMAP
17CFEC60
683013A8
0000000B
00000047
00000680
00039400
03850000
7FFFFFFF
ENDCHAR
STARTCHAR three
ENCODING 51
SWIDTH 726 0
DWIDTH 9 0
BBX 8 8 0 0
BITMAP
5FFFED80
00001297
00001384
003FFD40
00001386
0000000C
00001398
8FFFEC70
ENDCHAR
STARTCHAR four
ENCODING 52
SWIDTH 769 0
DWIDTH 9 0
BBX 9 8 0 0
BITMAP
00001CB000
0002B3B000
002B20B000
02A100B000
2A1000B000
9FFFFFFFD0
000000B000
000000B000
ENDCHAR
STARTCHAR five
ENCODING 53
SWIDTH 738 0
DWIDTH 9 0
BBX 9 8 0 0
BITMAP
0EFFFFF700
0B00000000
0B00000000
0EEFED9200
0000127C00
0000000A20
0000127C00
4FFFED8100
ENDCHAR
STARTCHAR six
ENCODING 54
SWIDTH 772 0
DWIDTH 9 0
BBX 9 8 0 0
BITMAP
004BEFFE00
05C4100000
0C10000000
296BEEC700
3E83113970
1B000001B0
0793013960
005CEEC600
ENDCHAR
STARTCHAR seven
ENCODING 55
SWIDTH 669 0
DWIDTH 8 0
BBX 8 8 0 0
BITMAP
FFFFFFFA
00000092
00000570
00001B00
0000A300
00057000
001B0000
00A30000
ENDCHAR
STARTCHAR eight
ENCODING 56
SWIDTH 793 0
DWIDTH 10 0
BBX 9 8 0 0
BITMAP
019DFEC500
0961013B30
0693125A10
005EFFB100
0994126B40
48000000B0
2D52013890
03ADFEC700
ENDCHAR
STARTCHAR nine
ENCODING 57
SWIDTH 776 0
DWIDTH 9 0
BBX 9 8 0 0
BITMAP
03ADED8100
2C41026B00
6500000650
3C41026D80
04BEFD8670
0000000A30
0000139A00
0BFFEC6000
ENDCHAR
STARTCHAR colon
ENCODING 58
SWIDTH 245 0
DWIDTH 3 0
BBX 1 6 1 0
BITMAP
F0
00
00
00
00
F0
ENDCHAR
STARTCHAR semicolon
ENCODING 59
SWIDTH 234 0
DWIDTH 3 0
BBX 2 7 0 -1
BITMAP
0F
00
00
00
00
2C
56
ENDCHAR
STARTCHAR less
ENCODING 60
SWIDTH 634 0
DWIDTH 8 0
BBX 7 7 0 1
BITMAP
00000680
0005D910
05C92000
1F400000
05C92000
0005D910
00000680
ENDCHAR
STARTCHAR equal
ENCODING 61
SWIDTH 634 0
DWIDTH 8 0
BBX 6 3 1 3
BITMAP
FFFFF9
000000
FFFFF9
ENDCHAR
STARTCHAR greater
ENCODING 62
SWIDTH 634 0
DWIDTH 8 0
BBX 6 7 1 1
BITMAP
B30000
4CA200
004C92
00009B
004CA2
4CA300
B30000
ENDCHAR
STARTCHAR question
ENCODING 63
SWIDTH 568 0
DWIDTH 7 0
BBX 6 8 0 0
BITMAP
4FFEB2
00016C
00000B
000067
019A40
029000
000000
02C000
ENDCHAR
STARTCHAR at
ENCODING 64
SWIDTH 1016 0
DWIDTH 12 0
BBX 12 8 0 0
BITMAP
0005AEFDA400
00AA41024B80
08705DED60B2
0C03B2083084
1B05802C23D1
0C31BFD9FC40
03D721000000
0029CEFEB100
ENDCHAR
STARTCHAR A
ENCODING 65
SWIDTH 812 0
DWIDTH 10 0
BBX 10 8 0 0
BITMAP
0000B90000
00057A2000
000B029000
0065008300
00A0001900
07FFFFFF30
1C000002B0
8500000084
ENDCHAR
STARTCHAR B
ENCODING 66
SWIDTH 836 0
DWIDTH 10 0
BBX 9 8 1 0
BITMAP
AFFFFEC300
A100014A00
A100014900
AFFFFFC200
A100013C10
A100000740
A100003C20
AFFFFFD600
ENDCHAR
STARTCHAR C
ENCODING 67
SWIDTH 869 0
DWIDTH 10 0
BBX 10 8 0 0
BITMAP
0029DFEC71
04D6200378
0C10000000
2900000000
2900000000
0C10000000
04D6200278
0029DFFC81
ENDCHAR
STARTCHAR D
ENCODING 68
SWIDTH 910 0
DWIDTH 11 0
BBX 10 8 1 0
BITMAP
AFFFFDB500
A100014C60
A1000001C0
A1000000A1
A1000000A1
A1000001C0
A100015C60
AFFFFEB500
ENDCHAR
STARTCHAR E
ENCODING 69
SWIDTH 754 0
DWIDTH 9 0
BBX 8 8 1 0
BITMAP
AFFFFFF1
A2000000
A2000000
AFFFFFC0
A2000000
A2000000
A2000000
AFFFFFF2
ENDCHAR
STARTCHAR F
ENCODING 70
SWIDTH 687 0
DWIDTH 8 0
BBX 7 8 1 0
BITMAP
AFFFFFB0
A1000000
A1000000
AFFFFF70
A1000000
A1000000
A1000000
A1000000
ENDCHAR
STARTCHAR G
ENCODING 71
SWIDTH 910 0
DWIDTH 11 0
BBX 10 8 0 0
BITMAP
0028DEFD82
04D7210269
0C20000000
2900000000
290001FFFE
0C2000000B
04D720012C
0028CEFEC7
ENDCHAR
STARTCHAR H
ENCODING 72
SWIDTH 949 0
DWIDTH 11 0
BBX 9 8 1 0
BITMAP
A1000000B0
A1000000B0
A1000000B0
AFFFFFFFF0
A1000000B0
A1000000B0
A1000000B0
A1000000B0
ENDCHAR
STARTCHAR I
ENCODING 73
SWIDTH 287 0
DWIDTH 3 0
BBX 2 8 1 0
BITMAP
A1
A1
A1
A1
A1
A1
A1
A1
ENDCHAR
STARTCHAR J
ENCODING 74
SWIDTH 590 0
DWIDTH 7 0
BBX 6 8 0 0
BITMAP
00000B
00000B
00000B
00000B
00000B
00001B
0002A7
FFFD80
ENDCHAR
STARTCHAR K
ENCODING 75
SWIDTH 806 0
DWIDTH 10 0
BBX 9 8 1 0
BITMAP
A100018600
A100692000
A12A500000
A8A1000000
A5B4000000
A108910000
A1003B5000
A100008910
ENDCHAR
STARTCHAR L
ENCODING 76
SWIDTH 701 0
DWIDTH 8 0
BBX 7 8 1 0
BITMAP
A1000000
A1000000
A1000000
A1000000
A1000000
A1000000
A1000000
AFFFFFF0
ENDCHAR
STARTCHAR M
ENCODING 77
SWIDTH 1139 0
DWIDTH 14 0
BBX 12 8 1 0
BITMAP
A700000000C5
AB20000007C5
A3B000002A65
A1660000A265
A10A20067065
A102A01B0065
A10076A30065
A1000B700065
ENDCHAR
STARTCHAR N
ENCODING 78
SWIDTH 936 0
DWIDTH 11 0
BBX 9 8 1 0
BITMAP
AA000000B0
A7900000B0
A1690000B0
A1069000B0
A1006900B0
A1000690B0
A1000069B0
A1000006D0
ENDCHAR
STARTCHAR O
ENCODING 79
SWIDTH 983 0
DWIDTH 12 0
BBX 11 8 0 0
BITMAP
0029DFEC8200
04D620027D20
0C10000003B0
2900000000B0
2900000000B0
0C10000003B0
05D620027D30
0029DEEC8100
ENDCHAR
STARTCHAR P
ENCODING 80
SWIDTH 818 0
DWIDTH 10 0
BBX 9 8 1 0
BITMAP
AFFFFEB300
A100014C00
A100000920
A100003C00
AFFFFEB300
A100000000
A100000000
A100000000
ENDCHAR
STARTCHAR Q
ENCODING 81
SWIDTH 983 0
DWIDTH 12 0
BBX 12 8 0 0
BITMAP
0029DFEC8200
04D620027D20
0C10000003B0
2900000000B0
2900000000B0
0C10005813B0
05D62018DD30
0029DEED87B9
ENDCHAR
STARTCHAR R
ENCODING 82
SWIDTH 833 0
DWIDTH 10 0
BBX 9 8 1 0
BITMAP
AFFFFE9100
A100027900
A100000B00
A100017900
AFFFFFA100
A100075000
A100009400
A100000B30
ENDCHAR
STARTCHAR S
ENCODING 83
SWIDTH 787 0
DWIDTH 9 0
BBX 8 8 1 0
BITMAP
3AEFFFD0
C5100000
B4000000
29DB7200
00036AA1
00000067
000013B5
FFFFEC60
ENDCHAR
STARTCHAR T
ENCODING 84
SWIDTH 708 0
DWIDTH 9 0
BBX 9 8 0 0
BITMAP
CFFFFFFF40
0002900000
0002900000
0002900000
0002900000
0002900000
0002900000
0002900000
ENDCHAR
STARTCHAR U
ENCODING 85
SWIDTH 891 0
DWIDTH 11 0
BBX 9 8 1 0
BITMAP
B000000560
B000000560
B000000560
B000000560
B000000560
A200000760
5C41026D20
05BEFDA300
ENDCHAR
STARTCHAR V
ENCODING 86
SWIDTH 817 0
DWIDTH 10 0
BBX 10 8 0 0
BITMAP
6600000094
0C100002B0
0670000A30
00C1003B00
006800B300
000D14B000
00069B3000
0000DA0000
ENDCHAR
STARTCHAR W
ENCODING 87
SWIDTH 1266 0
DWIDTH 15 0
BBX 15 8 0 0
BITMAP
5700001F40000480
0C000077A0000A20
084000B0B1001B00
02A0048057007500
00B10A200B00C000
00571B0008348000
000B6500039A2000
0008D10000BB0000
ENDCHAR
STARTCHAR X
ENCODING 88
SWIDTH 821 0
DWIDTH 10 0
BBX 10 8 0 0
BITMAP
1A30000490
01A3004A00
001B23A000
0001BA1000
0003BB2000
002B12B100
02B1002B10
2B100002B1
ENDCHAR
STARTCHAR Y
ENCODING 89
SWIDTH 763 0
DWIDTH 9 0
BBX 9 8 0 0
BITMAP
3A00000850
0580006700
008503A000
000A5B1000
0001D20000
0000B00000
0000B00000
0000B00000
ENDCHAR
STARTCHAR Z
ENCODING 90
SWIDTH 728 0
DWIDTH 9 0
BBX 8 8 0 0
BITMAP
0FFFFFF9
00000070
00000710
00007100
00062000
00630000
05400000
1FFFFFFE
ENDCHAR
STARTCHAR bracketleft
ENCODING 91
SWIDTH 409 0
DWIDTH 5 0
BBX 4 10 1 -1
BITMAP
7FF5
7400
7400
7400
7400
7400
7400
7400
7400
7FF5
ENDCHAR
STARTCHAR backslash
ENCODING 92
SWIDTH 500 0
DWIDTH 6 0
BBX 6 8 0 0
BITMAP
290000
092000
029000
009200
002900
000920
000290
000092
ENDCHAR
STARTCHAR bracketright
ENCODING 93
SWIDTH 409 0
DWIDTH 5 0
BBX 4 10 0 -1
BITMAP
6FF6
0056
0056
0056
0056
0056
0056
0056
0056
6FF6
ENDCHAR
STARTCHAR asciicircum
ENCODING 94
SWIDTH 459 0
DWIDTH 6 0
BBX 5 3 0 5
BITMAP
01E700
0A5B30
5801B0
ENDCHAR
STARTCHAR underscore
ENCODING 95
SWIDTH 500 0
DWIDTH 6 0
BBX 6 1 0 -2
BITMAP
FFFFFF
ENDCHAR
STARTCHAR grave
ENCODING 96
SWIDTH 527 0
DWIDTH 6 0
BBX 3 2 1 7
BITMAP
9500
0680
ENDCHAR
STARTCHAR a
ENCODING 97
SWIDTH 888 0
DWIDTH 11 0
BBX 10 8 0 0
BITMAP
08FFFFD920
00000025C1
0000000065
00159BDEF6
07C8532166
3A00000056
2D410148E6
05CEFEB776
ENDCHAR
STARTCHAR b
ENCODING 98
SWIDTH 836 0
DWIDTH 10 0
BBX 9 8 1 0
BITMAP
AFFFFEC300
A100014A00
A100014900
AFFFFFC200
A100013C10
A100000740
A100003C20
AFFFFFD600
ENDCHAR
STARTCHAR c
ENCODING 99
SWIDTH 869 0
DWIDTH 10 0
BBX 10 8 0 0
BITMAP
0029DFEC71
04D6200378
0C10000000
2900000000
2900000000
0C10000000
04D6200278
0029DFFC81
ENDCHAR
STARTCHAR d
ENCODING 100
SWIDTH 910 0
DWIDTH 11 0
BBX 10 8 1 0
BITMAP
AFFFFDB500
A100014C60
A1000001C0
A1000000A1
A1000000A1
A1000001C0
A100015C60
AFFFFEB500
ENDCHAR
STARTCHAR e
ENCODING 101
SWIDTH 910 0
DWIDTH 11 0
BBX 11 8 0 0
BITMAP
0029EFEB4000
04B52014B500
0A0000000A00
2FFFFFFFFF10
2A0000000000
0D3000000000
04E720000000
0029DFFFF700
ENDCHAR
STARTCHAR f
ENCODING 102
SWIDTH 817 0
DWIDTH 10 0
BBX 9 8 1 0
BITMAP
06CEFFFF10
5C41000000
9300000000
A100000000
AFFFFFFF00
A100000000
A100000000
A100000000
ENDCHAR
STARTCHAR g
ENCODING 103
SWIDTH 910 0
DWIDTH 11 0
BBX 10 8 0 0
BITMAP
0028DEFD82
04D7210269
0C20000000
2900000000
290001FFFE
0C2000000B
04D720012C
0028CEFEC7
ENDCHAR
STARTCHAR h
ENCODING 104
SWIDTH 949 0
DWIDTH 11 0
BBX 9 8 1 0
BITMAP
A1000000B0
A1000000B0
A1000000B0
AFFFFFFFF0
A1000000B0
A1000000B0
A1000000B0
A1000000B0
ENDCHAR
STARTCHAR i
ENCODING 105
SWIDTH 287 0
DWIDTH 3 0
BBX 2 8 1 0
BITMAP
A1
A1
A1
A1
A1
A1
A1
A1
ENDCHAR
STARTCHAR j
ENCODING 106
SWIDTH 590 0
DWIDTH 7 0
BBX 6 8 0 0
BITMAP
00000B
00000B
00000B
00000B
00000B
00001B
0002A7
FFFD80
ENDCHAR
STARTCHAR k
ENCODING 107
SWIDTH 867 0
DWIDTH 10 0
BBX 9 8 1 0
BITMAP
A100000B10
A100007800
A1025A7000
AFFFD40000
A1025BA100
A100006B00
A100000940
A100000380
ENDCHAR
STARTCHAR l
ENCODING 108
SWIDTH 709 0
DWIDTH 9 0
BBX 8 8 1 0
BITMAP
A1000000
A1000000
A1000000
A1000000
A1000000
92000000
79200000
19EFFFF6
ENDCHAR
STARTCHAR m
ENCODING 109
SWIDTH 1246 0
DWIDTH 15 0
BBX 13 8 1 0
BITMAP
A28EEA13BEE800
AD7118CC412A50
A30000D0000390
A10000B00001A0
A10000B00001A0
A10000B00001A0
A10000B00001A0
A10000B00001A0
ENDCHAR
STARTCHAR n
ENCODING 110
SWIDTH 933 0
DWIDTH 11 0
BBX 9 8 1 0
BITMAP
A139DFD910
ABC6202990
A6000000C0
A1000000B0
A1000000B0
A1000000B0
A1000000B0
A1000000B0
ENDCHAR
STARTCHAR o
ENCODING 111
SWIDTH 983 0
DWIDTH 12 0
BBX 11 8 0 0
BITMAP
0029DFEC8200
04D620027D20
0C10000003B0
2900000000B0
2900000000B0
0C10000003B0
05D620027D30
0029DEEC8100
ENDCHAR
STARTCHAR p
ENCODING 112
SWIDTH 818 0
DWIDTH 10 0
BBX 9 8 1 0
BITMAP
AFFFFEB300
A100014C00
A100000920
A100003C00
AFFFFEB300
A100000000
A100000000
A100000000
ENDCHAR
STARTCHAR q
ENCODING 113
SWIDTH 983 0
DWIDTH 12 0
BBX 12 8 0 0
BITMAP
0029DFEC8200
04D620027D20
0C10000003B0
2900000000B0
2900000000B0
0C10000003B0
05D620027D30
0029DEED99C8
ENDCHAR
STARTCHAR r
ENCODING 114
SWIDTH 609 0
DWIDTH 7 0
BBX 7 8 1 0
BITMAP
A14BEF40
AAB41110
A7000000
A1000000
A1000000
A1000000
A1000000
A1000000
ENDCHAR
STARTCHAR s
ENCODING 115
SWIDTH 787 0
DWIDTH 9 0
BBX 8 8 1 0
BITMAP
3AEFFFD0
C5100000
B4000000
29DB7200
00036AA1
00000067
000013B5
FFFFEC60
ENDCHAR
STARTCHAR t
ENCODING 116
SWIDTH 708 0
DWIDTH 9 0
BBX 9 8 0 0
BITMAP
CFFFFFFF40
0002900000
0002900000
0002900000
0002900000
0002900000
0002900000
0002900000
ENDCHAR
STARTCHAR u
ENCODING 117
SWIDTH 931 0
DWIDTH 11 0
BBX 9 8 1 0
BITMAP
A1000000B0
A1000000B0
A1000000B0
A1000000B0
A1000000B0
A2000004C0
6A2025BCC0
07DFEA40B0
ENDCHAR
STARTCHAR v
ENCODING 118
SWIDTH 817 0
DWIDTH 10 0
BBX 10 8 0 0
BITMAP
6600000094
0C100002B0
0670000A30
00C1003B00
006800B300
000D14B000
00069B3000
0000DA0000
ENDCHAR
STARTCHAR w
ENCODING 119
SWIDTH 1266 0
DWIDTH 15 0
BBX 15 8 0 0
BITMAP
5700001F40000480
0C000077A0000A20
084000B0B1001B00
02A0048057007500
00B10A200B00C000
00571B0008348000
000B6500039A2000
0008D10000BB0000
ENDCHAR
STARTCHAR x
ENCODING 120
SWIDTH 821 0
DWIDTH 10 0
BBX 10 8 0 0
BITMAP
1A30000490
01A3004A00
001B23A000
0001BA1000
0003BB2000
002B12B100
02B1002B10
2B100002B1
ENDCHAR
STARTCHAR y
ENCODING 121
SWIDTH 911 0
DWIDTH 11 0
BBX 9 8 1 0
BITMAP
B000000390
B000000390
C100000890
7B3014BB90
06CEEB4390
0000000770
0000139E20
EFFFEC8200
ENDCHAR
STARTCHAR z
ENCODING 122
SWIDTH 728 0
DWIDTH 9 0
BBX 8 8 0 0
BITMAP
0FFFFFF9
00000070
00000710
00007100
00062000
00630000
05400000
1FFFFFFE
ENDCHAR
STARTCHAR braceleft
ENCODING 123
SWIDTH 386 0
DWIDTH 5 0
BBX 4 10 0 -1
BITMAP
00BF
0390
0470
0560
0840
AC00
0850
0570
0490
01CF
ENDCHAR
STARTCHAR bar
ENCODING 124
SWIDTH 259 0
DWIDTH 3 0
BBX 1 12 1 -3
BITMAP
B0
B0
B0
B0
B0
B0
B0
B0
B0
B0
B0
B0
ENDCHAR
STARTCHAR braceright
ENCODING 125
SWIDTH 386 0
DWIDTH 5 0
BBX 5 10 0 -1
BITMAP
6E6000
01C000
00B000
00B000
00A300
003F40
00A200
00B000
01C000
6E7000
ENDCHAR
STARTCHAR asciitilde
ENCODING 126
SWIDTH 634 0
DWIDTH 8 0
BBX 7 2 0 3
BITMAP
09EA3160
1616CE40
ENDCHAR
STARTCHAR nonbreakingspace
ENCODING 160
SWIDTH 375 0
DWIDTH 5 0
BBX 1 1 0 0
BITMAP
00
ENDCHAR
STARTCHAR exclamdown
ENCODING 161
SWIDTH 274 0
DWIDTH 3 0
BBX 2 8 1 0
BITMAP
C1
00
80
90
A0
B1
C1
C1
ENDCHAR
STARTCHAR cent
ENCODING 162
SWIDTH 736 0
DWIDTH 9 0
BBX 9 9 0 -1
BITMAP
0000720000
006CEEC600
0A93833930
4A00720000
6700720000
4A00720000
0A93833830
006CFFC600
0000720000
ENDCHAR
STARTCHAR sterling
ENCODING 163
SWIDTH 792 0
DWIDTH 10 0
BBX 9 8 0 0
BITMAP
0004CFFF50
002C410000
0075000000
0083000000
4FFFFFF100
0083000000
03C1000000
4FFFFFFFC0
ENDCHAR
STARTCHAR currency
ENCODING 164
SWIDTH 560 0
DWIDTH 7 0
BBX 6 6 0 1
BITMAP
130004
0ACEC7
093166
093066
0ACEB7
130004
ENDCHAR
STARTCHAR yen
ENCODING 165
SWIDTH 811 0
DWIDTH 10 0
BBX 9 8 0 0
BITMAP
1A20000580
01A2004900
001A139000
0EFFCEFFA0
0000950000
0EFFFFFFA0
0000840000
0000840000
ENDCHAR
STARTCHAR brokenbar
ENCODING 166
SWIDTH 259 0
DWIDTH 3 0
BBX 1 10 1 -2
BITMAP
B0
B0
B0
B0
00
00
B0
B0
B0
B0
ENDCHAR
STARTCHAR section
ENCODING 167
SWIDTH 500 0
DWIDTH 6 0
BBX 6 8 0 0
BITMAP
07EFB0
0B4000
09DB30
3804C1
2D4083
03CDA0
0005B0
0EFE70
ENDCHAR
STARTCHAR dieresis
ENCODING 168
SWIDTH 527 0
DWIDTH 6 0
BBX 4 1 1 7
BITMAP
761C
ENDCHAR
STARTCHAR copyright
ENCODING 169
SWIDTH 770 0
DWIDTH 9 0
BBX 9 8 0 0
BITMAP
005CED7000
07A3128A00
1A2BFF5750
5394000080
5394000080
2A2BFF5750
07A3128B00
006CFD8000
ENDCHAR
STARTCHAR ordfeminine
ENCODING 170
SWIDTH 497 0
DWIDTH 6 0
BBX 6 6 0 2
BITMAP
3FFEA1
17BEF4
862284
4DFEC4
000000
7FFFF4
ENDCHAR
STARTCHAR guillemotleft
ENCODING 171
SWIDTH 440 0
DWIDTH 5 0
BBX 5 5 0 2
BITMAP
036280
1B1B20
755700
1B1B20
046280
ENDCHAR
STARTCHAR logicalnot
ENCODING 172
SWIDTH 634 0
DWIDTH 8 0
BBX 6 3 1 3
BITMAP
FFFFF9
000009
000009
ENDCHAR
STARTCHAR uni00AD
ENCODING 173
SWIDTH 540 0
DWIDTH 6 0
BBX 5 1 1 4
BITMAP
FFFF80
ENDCHAR
STARTCHAR registered
ENCODING 174
SWIDTH 600 0
DWIDTH 7 0
BBX 7 6 0 2
BITMAP
02BEC400
1BCFDB20
449FA170
44808160
1B413B20
02BEC400
ENDCHAR
STARTCHAR macron
ENCODING 175
SWIDTH 527 0
DWIDTH 6 0
BBX 4 1 1 7
BITMAP
7FFC
ENDCHAR
STARTCHAR degree
ENCODING 176
SWIDTH 373 0
DWIDTH 4 0
BBX 4 3 0 5
BITMAP
0BE4
3829
0BE4
ENDCHAR
STARTCHAR plusminus
ENCODING 177
SWIDTH 634 0
DWIDTH 8 0
BBX 6 7 1 0
BITMAP
008200
008200
FFFFF9
008200
008200
000000
FFFFF9
ENDCHAR
STARTCHAR twosuperior
ENCODING 178
SWIDTH 511 0
DWIDTH 6 0
BBX 6 5 0 3
BITMAP
8FFE90
000195
000181
035500
8FFFF7
ENDCHAR
STARTCHAR threesuperior
ENCODING 179
SWIDTH 512 0
DWIDTH 6 0
BBX 6 5 0 3
BITMAP
7FFE90
0003C1
00FE70
0002A4
9FFEA1
ENDCHAR
STARTCHAR acute
ENCODING 180
SWIDTH 527 0
DWIDTH 6 0
BBX 4 2 2 7
BITMAP
03B1
5920
ENDCHAR
STARTCHAR micro
ENCODING 181
SWIDTH 705 0
DWIDTH 8 0
BBX 8 8 0 -2
BITMAP
02900074
056000A1
083000C0
0B0003B0
0D714B90
2AAEA2A0
56000000
73000000
ENDCHAR
STARTCHAR paragraph
ENCODING 182
SWIDTH 585 0
DWIDTH 7 0
BBX 6 8 0 0
BITMAP
05DFF9
1FFE08
4FFE08
1FFE08
05DE08
000808
000808
000808
ENDCHAR
STARTCHAR periodcentered
ENCODING 183
SWIDTH 185 0
DWIDTH 2 0
BBX 2 1 0 3
BITMAP
69
ENDCHAR
STARTCHAR cedilla
ENCODING 184
SWIDTH 527 0
DWIDTH 6 0
BBX 4 2 1 -2
BITMAP
03F5
3FE5
ENDCHAR
STARTCHAR onesuperior
ENCODING 185
SWIDTH 261 0
DWIDTH 3 0
BBX 3 5 0 3
BITMAP
DF10
0910
0910
0910
0910
ENDCHAR
STARTCHAR ordmasculine
ENCODING 186
SWIDTH 520 0
DWIDTH 6 0
BBX 6 6 0 2
BITMAP
19EEB2
86103A
86103A
19EEB2
000000
5FFFF9
ENDCHAR
STARTCHAR guillemotright
ENCODING 187
SWIDTH 440 0
DWIDTH 5 0
BBX 5 5 0 2
BITMAP
452800
0B2940
0391B0
0B2940
452800
ENDCHAR
STARTCHAR onequarter
ENCODING 188
SWIDTH 857 0
DWIDTH 10 0
BBX 10 8 0 0
BITMAP
CF20002A00
082000A100
0820093000
0820650000
0004803A80
002A066280
00A13FFFFB
0930000180
ENDCHAR
STARTCHAR onehalf
ENCODING 189
SWIDTH 937 0
DWIDTH 11 0
BBX 11 8 0 0
BITMAP
CF20002A0000
082000A10000
082009300000
082065000000
000480CFEA10
002A00001920
00A100034400
093000CFFF40
ENDCHAR
STARTCHAR threequarters
ENCODING 190
SWIDTH 978 0
DWIDTH 12 0
BBX 12 8 0 0
BITMAP
4FFD40008300
01FD20066000
000590380000
6FFD41A00000
00000A108D00
000083382A00
000660BFFFF2
003800000A00
ENDCHAR
STARTCHAR questiondown
ENCODING 191
SWIDTH 568 0
DWIDTH 7 0
BBX 7 8 0 0
BITMAP
0000E000
00000000
0000B000
005A8000
09500000
1A000000
0D400000
03CEFF20
ENDCHAR
STARTCHAR Agrave
ENCODING 192
SWIDTH 812 0
DWIDTH 10 0
BBX 10 11 0 0
BITMAP
001B300000
0001850000
0000000000
0000B90000
00057A2000
000B029000
0065008300
00A0001900
07FFFFFF30
1C000002B0
8500000084
ENDCHAR
STARTCHAR Aacute
ENCODING 193
SWIDTH 812 0
DWIDTH 10 0
BBX 10 11 0 0
BITMAP
000005A000
0000871000
0000000000
0000B90000
00057A2000
000B029000
0065008300
00A0001900
07FFFFFF30
1C000002B0
8500000084
ENDCHAR
STARTCHAR Acircumflex
ENCODING 194
SWIDTH 812 0
DWIDTH 10 0
BBX 10 11 0 0
BITMAP
0002A81000
0028129000
0000000000
0000B90000
00057A2000
000B029000
0065008300
00A0001900
07FFFFFF30
1C000002B0
8500000084
ENDCHAR
STARTCHAR Atilde
ENCODING 195
SWIDTH 812 0
DWIDTH 10 0
BBX 10 11 0 0
BITMAP
000BC39000
00184D8000
0000000000
0000B90000
00057A2000
000B029000
0065008300
00A0001900
07FFFFFF30
1C000002B0
8500000084
ENDCHAR
STARTCHAR Adieresis
ENCODING 196
SWIDTH 812 0
DWIDTH 10 0
BBX 10 10 0 0
BITMAP
000B258000
0000000000
0000B90000
00057A2000
000B029000
0065008300
00A0001900
07FFFFFF30
1C000002B0
8500000084
ENDCHAR
STARTCHAR Aring
ENCODING 197
SWIDTH 812 0
DWIDTH 10 0
BBX 10 11 0 0
BITMAP
0006ED3000
0006EE3000
0000000000
0000B90000
00057A2000
000B029000
0065008300
00A0001900
07FFFFFF30
1C000002B0
8500000084
ENDCHAR
STARTCHAR AE
ENCODING 198
SWIDTH 1172 0
DWIDTH 14 0
BBX 14 8 0 0
BITMAP
00001DFFFFFFF1
00009793000000
0004A093000000
001B109FFFFFC0
00930093000000
04FFFFF3000000
1C100093000000
A500009FFFFFF3
ENDCHAR
STARTCHAR Ccedilla
ENCODING 199
SWIDTH 869 0
DWIDTH 10 0
BBX 10 10 0 -2
BITMAP
0029DFEC71
04D6200378
0C10000000
2900000000
2900000000
0C10000000
04D6200278
0029DFFC81
00000DA000
0000CFA000
ENDCHAR
STARTCHAR Egrave
ENCODING 200
SWIDTH 754 0
DWIDTH 9 0
BBX 8 11 1 0
BITMAP
03A20000
00393000
00000000
AFFFFFF1
A2000000
A2000000
AFFFFFC0
A2000000
A2000000
A2000000
AFFFFFF2
ENDCHAR
STARTCHAR Eacute
ENCODING 201
SWIDTH 754 0
DWIDTH 9 0
BBX 8 11 1 0
BITMAP
00007700
000A5000
00000000
AFFFFFF1
A2000000
A2000000
AFFFFFC0
A2000000
A2000000
A2000000
AFFFFFF2
ENDCHAR
STARTCHAR Ecircumflex
ENCODING 202
SWIDTH 754 0
DWIDTH 9 0
BBX 8 11 1 0
BITMAP
003B6000
04704700
00000000
AFFFFFF1
A2000000
A2000000
AFFFFFC0
A2000000
A2000000
A2000000
AFFFFFF2
ENDCHAR
STARTCHAR Edieresis
ENCODING 203
SWIDTH 754 0
DWIDTH 9 0
BBX 8 10 1 0
BITMAP
00D09400
00000000
AFFFFFF1
A2000000
A2000000
AFFFFFC0
A2000000
A2000000
A2000000
AFFFFFF2
ENDCHAR
STARTCHAR Igrave
ENCODING 204
SWIDTH 287 0
DWIDTH 3 0
BBX 4 11 -1 0
BITMAP
3A20
0294
0000
00A1
00A1
00A1
00A1
00A1
00A1
00A1
00A1
ENDCHAR
STARTCHAR Iacute
ENCODING 205
SWIDTH 287 0
DWIDTH 3 0
BBX 3 11 1 0
BITMAP
0680
9500
0000
A100
A100
A100
A100
A100
A100
A100
A100
ENDCHAR
STARTCHAR Icircumflex
ENCODING 206
SWIDTH 287 0
DWIDTH 3 0
BBX 5 11 -1 0
BITMAP
03B700
471480
000000
00A100
00A100
00A100
00A100
00A100
00A100
00A100
00A100
ENDCHAR
STARTCHAR Idieresis
ENCODING 207
SWIDTH 287 0
DWIDTH 3 0
BBX 4 10 0 0
BITMAP
D085
0000
0A10
0A10
0A10
0A10
0A10
0A10
0A10
0A10
ENDCHAR
STARTCHAR Eth
ENCODING 208
SWIDTH 910 0
DWIDTH 11 0
BBX 11 8 0 0
BITMAP
0AFFFEDA4000
0A100025C600
0A1000001C00
CFFFF6000A20
0A1000000A20
0A1000001C00
0A100015C600
0AFFFFDA4000
ENDCHAR
STARTCHAR Ntilde
ENCODING 209
SWIDTH 936 0
DWIDTH 11 0
BBX 9 11 1 0
BITMAP
001D929000
00647E4000
0000000000
AA000000B0
A7900000B0
A1690000B0
A1069000B0
A1006900B0
A1000690B0
A1000069B0
A1000006D0
ENDCHAR
STARTCHAR Ograve
ENCODING 210
SWIDTH 983 0
DWIDTH 12 0
BBX 11 11 0 0
BITMAP
0000B3000000
000018600000
000000000000
0029DFEC8200
04D620027D20
0C10000003B0
2900000000B0
2900000000B0
0C10000003B0
05D620027D30
0029DEEC8100
ENDCHAR
STARTCHAR Oacute
ENCODING 211
SWIDTH 983 0
DWIDTH 12 0
BBX 11 11 0 0
BITMAP
0000004A0000
000007710000
000000000000
0029DFEC8200
04D620027D20
0C10000003B0
2900000000B0
2900000000B0
0C10000003B0
05D620027D30
0029DEEC8100
ENDCHAR
STARTCHAR Ocircumflex
ENCODING 212
SWIDTH 983 0
DWIDTH 12 0
BBX 11 11 0 0
BITMAP
00001A910000
000281291000
000000000000
0029DFEC8200
04D620027D20
0C10000003B0
2900000000B0
2900000000B0
0C10000003B0
05D620027D30
0029DEEC8100
ENDCHAR
STARTCHAR Otilde
ENCODING 213
SWIDTH 983 0
DWIDTH 12 0
BBX 11 11 0 0
BITMAP
0000AC390000
000184D90000
000000000000
0029DFEC8200
04D620027D20
0C10000003B0
2900000000B0
2900000000B0
0C10000003B0
05D620027D30
0029DEEC8100
ENDCHAR
STARTCHAR Odieresis
ENCODING 214
SWIDTH 983 0
DWIDTH 12 0
BBX 11 10 0 0
BITMAP
0000A3580000
000000000000
0029DFEC8200
04D620027D20
0C10000003B0
2900000000B0
2900000000B0
0C10000003B0
05D620027D30
0029DEEC8100
ENDCHAR
STARTCHAR multiply
ENCODING 215
SWIDTH 634 0
DWIDTH 8 0
BBX 6 5 1 2
BITMAP
640091
094940
00D700
095940
650091
ENDCHAR
STARTCHAR Oslash
ENCODING 216
SWIDTH 983 0
DWIDTH 12 0
BBX 11 10 0 -1
BITMAP
000000003800
0029DFECD200
04D620079D20
0C10003803B0
2900029000B0
29001A1000B0
0C10920003B0
05DA50027D30
004CDFEC8100
00A100000000
ENDCHAR
STARTCHAR Ugrave
ENCODING 217
SWIDTH 891 0
DWIDTH 11 0
BBX 9 11 1 0
BITMAP
0077000000
0005A00000
0000000000
B000000560
B000000560
B000000560
B000000560
B000000560
A200000760
5C41026D20
05BEFDA300
ENDCHAR
STARTCHAR Uacute
ENCODING 218
SWIDTH 891 0
DWIDTH 11 0
BBX 9 11 1 0
BITMAP
0000194000
0003930000
0000000000
B000000560
B000000560
B000000560
B000000560
B000000560
A200000760
5C41026D20
05BEFDA300
ENDCHAR
STARTCHAR Ucircumflex
ENCODING 219
SWIDTH 891 0
DWIDTH 11 0
BBX 9 11 1 0
BITMAP
0006B30000
0074075000
0000000000
B000000560
B000000560
B000000560
B000000560
B000000560
A200000760
5C41026D20
05BEFDA300
ENDCHAR
STARTCHAR Udieresis
ENCODING 220
SWIDTH 891 0
DWIDTH 11 0
BBX 9 10 1 0
BITMAP
00490D0000
0000000000
B000000560
B000000560
B000000560
B000000560
B000000560
A200000760
5C41026D20
05BEFDA300
ENDCHAR
STARTCHAR Yacute
ENCODING 221
SWIDTH 763 0
DWIDTH 9 0
BBX 9 11 0 0
BITMAP
0000077000
0000A50000
0000000000
3A00000850
0580006700
008503A000
000A5B1000
0001D20000
0000B00000
0000B00000
0000B00000
ENDCHAR
STARTCHAR Thorn
ENCODING 222
SWIDTH 787 0
DWIDTH 9 0
BBX 8 8 1 0
BITMAP
A1000000
AFFFFD80
A1001297
A100001A
A1000187
AFFFFD80
A1000000
A1000000
ENDCHAR
STARTCHAR germandbls
ENCODING 223
SWIDTH 863 0
DWIDTH 10 0
BBX 9 8 1 0
BITMAP
06CFFD9200
7B31026C00
B000014A00
B04FFFD300
B000015C30
B000000390
B000013B60
B0FFFEC600
ENDCHAR
STARTCHAR agrave
ENCODING 224
SWIDTH 888 0
DWIDTH 11 0
BBX 10 11 0 0
BITMAP
0008600000
0000590000
0000000000
08FFFFD920
00000025C1
0000000065
00159BDEF6
07C8532166
3A00000056
2D410148E6
05CEFEB776
ENDCHAR
STARTCHAR aacute
ENCODING 225
SWIDTH 888 0
DWIDTH 11 0
BBX 10 11 0 0
BITMAP
000002A300
0000392000
0000000000
08FFFFD920
00000025C1
0000000065
00159BDEF6
07C8532166
3A00000056
2D410148E6
05CEFEB776
ENDCHAR
STARTCHAR acircumflex
ENCODING 226
SWIDTH 888 0
DWIDTH 11 0
BBX 10 11 0 0
BITMAP
00007B3000
0008417400
0000000000
08FFFFD920
00000025C1
0000000065
00159BDEF6
07C8532166
3A00000056
2D410148E6
05CEFEB776
ENDCHAR
STARTCHAR atilde
ENCODING 227
SWIDTH 888 0
DWIDTH 11 0
BBX 10 11 0 0
BITMAP
0005E65500
00092AD100
0000000000
08FFFFD920
00000025C1
0000000065
00159BDEF6
07C8532166
3A00000056
2D410148E6
05CEFEB776
ENDCHAR
STARTCHAR adieresis
ENCODING 228
SWIDTH 888 0
DWIDTH 11 0
BBX 10 10 0 0
BITMAP
000580D000
0000000000
08FFFFD920
00000025C1
0000000065
00159BDEF6
07C8532166
3A00000056
2D410148E6
05CEFEB776
ENDCHAR
STARTCHAR aring
ENCODING 229
SWIDTH 888 0
DWIDTH 11 0
BBX 10 11 0 0
BITMAP
0001DE8000
0001DF8000
0000000000
08FFFFD920
00000025C1
0000000065
00159BDEF6
07C8532166
3A00000056
2D410148E6
05CEFEB776
ENDCHAR
STARTCHAR ae
ENCODING 230
SWIDTH 1551 0
DWIDTH 19 0
BBX 18 8 0 0
BITMAP
08FFFFDA204AEFEA20
00000025C7A41015B3
00000000690000001A
00159BDEFFFFFFFFFE
07C853215800000000
3A0000002D20000000
2D410137CBD6200000
05CEFEB7203ADFFFF4
ENDCHAR
STARTCHAR ccedilla
ENCODING 231
SWIDTH 869 0
DWIDTH 10 0
BBX 10 10 0 -2
BITMAP
0029DFEC71
04D6200378
0C10000000
2900000000
2900000000
0C10000000
04D6200278
0029DFFC81
00000DA000
0000CFA000
ENDCHAR
STARTCHAR egrave
ENCODING 232
SWIDTH 910 0
DWIDTH 11 0
BBX 11 11 0 0
BITMAP
000681000000
00004A100000
000000000000
0029EFEB4000
04B52014B500
0A0000000A00
2FFFFFFFFF10
2A0000000000
0D3000000000
04E720000000
0029DFFFF700
ENDCHAR
STARTCHAR eacute
ENCODING 233
SWIDTH 910 0
DWIDTH 11 0
BBX 11 11 0 0
BITMAP
000001850000
00001A400000
000000000000
0029EFEB4000
04B52014B500
0A0000000A00
2FFFFFFFFF10
2A0000000000
0D3000000000
04E720000000
0029DFFFF700
ENDCHAR
STARTCHAR ecircumflex
ENCODING 234
SWIDTH 910 0
DWIDTH 11 0
BBX 11 11 0 0
BITMAP
00005B400000
000660660000
000000000000
0029EFEB4000
04B52014B500
0A0000000A00
2FFFFFFFFF10
2A0000000000
0D3000000000
04E720000000
0029DFFFF700
ENDCHAR
STARTCHAR edieresis
ENCODING 235
SWIDTH 910 0
DWIDTH 11 0
BBX 11 10 0 0
BITMAP
0002B0C10000
000000000000
0029EFEB4000
04B52014B500
0A0000000A00
2FFFFFFFFF10
2A0000000000
0D3000000000
04E720000000
0029DFFFF700
ENDCHAR
STARTCHAR igrave
ENCODING 236
SWIDTH 287 0
DWIDTH 3 0
BBX 4 11 -1 0
BITMAP
2A20
0294
0000
00A1
00A1
00A1
00A1
00A1
00A1
00A1
00A1
ENDCHAR
STARTCHAR iacute
ENCODING 237
SWIDTH 287 0
DWIDTH 3 0
BBX 3 11 1 0
BITMAP
0680
9600
0000
A100
A100
A100
A100
A100
A100
A100
A100
ENDCHAR
STARTCHAR icircumflex
ENCODING 238
SWIDTH 287 0
DWIDTH 3 0
BBX 5 11 -1 0
BITMAP
03B700
471480
000000
00A100
00A100
00A100
00A100
00A100
00A100
00A100
00A100
ENDCHAR
STARTCHAR idieresis
ENCODING 239
SWIDTH 287 0
DWIDTH 3 0
BBX 4 10 0 0
BITMAP
D085
0000
0A10
0A10
0A10
0A10
0A10
0A10
0A10
0A10
ENDCHAR
STARTCHAR eth
ENCODING 240
SWIDTH 910 0
DWIDTH 11 0
BBX 11 8 0 0
BITMAP
0AFFFEDA4000
0A100025C600
0A1000001C00
CFFFF6000A20
0A1000000A20
0A1000001C00
0A100015C600
0AFFFFDA4000
ENDCHAR
STARTCHAR ntilde
ENCODING 241
SWIDTH 933 0
DWIDTH 11 0
BBX 9 11 1 0
BITMAP
003E828000
00828E3000
0000000000
A139DFD910
ABC6202990
A6000000C0
A1000000B0
A1000000B0
A1000000B0
A1000000B0
A1000000B0
ENDCHAR
STARTCHAR ograve
ENCODING 242
SWIDTH 983 0
DWIDTH 12 0
BBX 11 11 0 0
BITMAP
0000B3000000
000018600000
000000000000
0029DFEC8200
04D620027D20
0C10000003B0
2900000000B0
2900000000B0
0C10000003B0
05D620027D30
0029DEEC8100
ENDCHAR
STARTCHAR oacute
ENCODING 243
SWIDTH 983 0
DWIDTH 12 0
BBX 11 11 0 0
BITMAP
0000004A0000
000007710000
000000000000
0029DFEC8200
04D620027D20
0C10000003B0
2900000000B0
2900000000B0
0C10000003B0
05D620027D30
0029DEEC8100
ENDCHAR
STARTCHAR ocircumflex
ENCODING 244
SWIDTH 983 0
DWIDTH 12 0
BBX 11 11 0 0
BITMAP
00001A910000
000281291000
000000000000
0029DFEC8200
04D620027D20
0C10000003B0
2900000000B0
2900000000B0
0C10000003B0
05D620027D30
0029DEEC8100
ENDCHAR
STARTCHAR otilde
ENCODING 245
SWIDTH 983 0
DWIDTH 12 0
BBX 11 11 0 0
BITMAP
0000AC390000
000184D90000
000000000000
0029DFEC8200
04D620027D20
0C10000003B0
2900000000B0
2900000000B0
0C10000003B0
05D620027D30
0029DEEC8100
ENDCHAR
STARTCHAR odieresis
ENCODING 246
SWIDTH 983 0
DWIDTH 12 0
BBX 11 10 0 0
BITMAP
0000A3580000
000000000000
0029DFEC8200
04D620027D20
0C10000003B0
2900000000B0
2900000000B0
0C10000003B0
05D620027D30
0029DEEC8100
ENDCHAR
STARTCHAR divide
ENCODING 247
SWIDTH 634 0
DWIDTH 8 0
BBX 6 5 1 2
BITMAP
009300
000000
FFFFF9
000000
009300
ENDCHAR
STARTCHAR oslash
ENCODING 248
SWIDTH 983 0
DWIDTH 12 0
BBX 11 10 0 -1
BITMAP
000000003800
0029DFECD200
04D620079D20
0C10003803B0
2900029000B0
29001A1000B0
0C10920003B0
05DA50027D30
004CDFEC8100
00A100000000
ENDCHAR
STARTCHAR ugrave
ENCODING 249
SWIDTH 931 0
DWIDTH 11 0
BBX 9 11 1 0
BITMAP
0049100000
0003A20000
0000000000
A1000000B0
A1000000B0
A1000000B0
A1000000B0
A1000000B0
A2000004C0
6A2025BCC0
07DFEA40B0
ENDCHAR
STARTCHAR uacute
ENCODING 250
SWIDTH 931 0
DWIDTH 11 0
BBX 9 11 1 0
BITMAP
0000176000
0000A40000
0000000000
A1000000B0
A1000000B0
A1000000B0
A1000000B0
A1000000B0
A2000004C0
6A2025BCC0
07DFEA40B0
ENDCHAR
STARTCHAR ucircumflex
ENCODING 251
SWIDTH 931 0
DWIDTH 11 0
BBX 9 11 1 0
BITMAP
0004B50000
0056057000
0000000000
A1000000B0
A1000000B0
A1000000B0
A1000000B0
A1000000B0
A2000004C0
6A2025BCC0
07DFEA40B0
ENDCHAR
STARTCHAR udieresis
ENCODING 252
SWIDTH 931 0
DWIDTH 11 0
BBX 9 10 1 0
BITMAP
000C0A3000
0000000000
A1000000B0
A1000000B0
A1000000B0
A1000000B0
A1000000B0
A2000004C0
6A2025BCC0
07DFEA40B0
ENDCHAR
STARTCHAR yacute
ENCODING 253
SWIDTH 911 0
DWIDTH 11 0
BBX 9 11 1 0
BITMAP
00002A3000
0003930000
0000000000
B000000390
B000000390
C100000890
7B3014BB90
06CEEB4390
0000000770
0000139E20
EFFFEC8200
ENDCHAR
STARTCHAR thorn
ENCODING 254
SWIDTH 787 0
DWIDTH 9 0
BBX 8 8 1 0
BITMAP
A1000000
AFFFFD80
A1001297
A100001A
A1000187
AFFFFD80
A1000000
A1000000
ENDCHAR
STARTCHAR ydieresis
ENCODING 255
SWIDTH 911 0
DWIDTH 11 0
BBX 9 10 1 0
BITMAP
00490D0000
0000000000
B000000390
B000000390
C100000890
7B3014BB90
06CEEB4390
0000000770
0000139E20
EFFFEC8200
ENDCHAR
STARTCHAR Amacron
ENCODING 256
SWIDTH 812 0
DWIDTH 10 0
BBX 10 10 0 0
BITMAP
000BFF8000
0000000000
0000B90000
00057A2000
000B029000
0065008300
00A0001900
07FFFFFF30
1C000002B0
8500000084
ENDCHAR
STARTCHAR amacron
ENCODING 257
SWIDTH 888 0
DWIDTH 11 0
BBX 10 10 0 0
BITMAP
0005FFD000
0000000000
08FFFFD920
00000025C1
0000000065
00159BDEF6
07C8532166
3A00000056
2D410148E6
05CEFEB776
ENDCHAR
STARTCHAR Abreve
ENCODING 258
SWIDTH 812 0
DWIDTH 10 0
BBX 10 11 0 0
BITMAP
001B13A000
0005ED3000
0000000000
0000B90000
00057A2000
000B029000
0065008300
00A0001900
07FFFFFF30
1C000002B0
8500000084
ENDCHAR
STARTCHAR abreve
ENCODING 259
SWIDTH 888 0
DWIDTH 11 0
BBX 10 11 0 0
BITMAP
000941A200
0002CE8000
0000000000
08FFFFD920
00000025C1
0000000065
00159BDEF6
07C8532166
3A00000056
2D410148E6
05CEFEB776
ENDCHAR
STARTCHAR Aogonek
ENCODING 260
SWIDTH 812 0
DWIDTH 10 0
BBX 11 10 0 -2
BITMAP
0000B9000000
00057A200000
000B02900000
006500830000
00A000190000
07FFFFFF3000
1C000002B000
850000008400
000000018100
00000002EF50
ENDCHAR
STARTCHAR aogonek
ENCODING 261
SWIDTH 888 0
DWIDTH 11 0
BBX 11 10 0 -2
BITMAP
08FFFFD92000
00000025C100
000000006500
00159BDEF600
07C853216600
3A0000005600
2D410136C600
05CEFEB77600
000000017000
00000003EF30
ENDCHAR
STARTCHAR Cacute
ENCODING 262
SWIDTH 869 0
DWIDTH 10 0
BBX 10 11 0 0
BITMAP
0000005900
0000086000
0000000000
0029DFEC71
04D6200378
0C10000000
2900000000
2900000000
0C10000000
04D6200278
0029DFFC81
ENDCHAR
STARTCHAR cacute
ENCODING 263
SWIDTH 869 0
DWIDTH 10 0
BBX 10 11 0 0
BITMAP
0000005900
0000087000
0000000000
0029DFEC71
04D6200378
0C10000000
2900000000
2900000000
0C10000000
04D6200278
0029DFFC81
ENDCHAR
STARTCHAR Ccircumflex
ENCODING 264
SWIDTH 869 0
DWIDTH 10 0
BBX 10 11 0 0
BITMAP
00002A8000
0003813900
0000000000
0029DFEC71
04D6200378
0C10000000
2900000000
2900000000
0C10000000
04D6200278
0029DFFC81
ENDCHAR
STARTCHAR ccircumflex
ENCODING 265
SWIDTH 869 0
DWIDTH 10 0
BBX 10 11 0 0
BITMAP
00002A8000
0003813900
0000000000
0029DFEC71
04D6200378
0C10000000
2900000000
2900000000
0C10000000
04D6200278
0029DFFC81
ENDCHAR
STARTCHAR Cdotaccent
ENCODING 266
SWIDTH 869 0
DWIDTH 10 0
BBX 10 10 0 0
BITMAP
0000094000
0000000000
0029DFEC71
04D6200378
0C10000000
2900000000
2900000000
0C10000000
04D6200278
0029DFFC81
ENDCHAR
STARTCHAR cdotaccent
ENCODING 267
SWIDTH 869 0
DWIDTH 10 0
BBX 10 10 0 0
BITMAP
0000095000
0000000000
0029DFEC71
04D6200378
0C10000000
2900000000
2900000000
0C10000000
04D6200278
0029DFFC81
ENDCHAR
STARTCHAR Ccaron
ENCODING 268
SWIDTH 869 0
DWIDTH 10 0
BBX 10 11 0 0
BITMAP
0003813900
00002A8000
0000000000
0029DFEC71
04D6200378
0C10000000
2900000000
2900000000
0C10000000
04D6200278
0029DFFC81
ENDCHAR
STARTCHAR ccaron
ENCODING 269
SWIDTH 869 0
DWIDTH 10 0
BBX 10 11 0 0
BITMAP
0003813900
00002A8000
0000000000
0029DFEC71
04D6200378
0C10000000
2900000000
2900000000
0C10000000
04D6200278
0029DFFC81
ENDCHAR
STARTCHAR Dcaron
ENCODING 270
SWIDTH 910 0
DWIDTH 11 0
BBX 10 11 1 0
BITMAP
0560570000
004B600000
0000000000
AFFFFDB500
A100014C60
A1000001C0
A1000000A1
A1000000A1
A1000001C0
A100015C60
AFFFFEB500
ENDCHAR
STARTCHAR dcaron
ENCODING 271
SWIDTH 910 0
DWIDTH 11 0
BBX 10 11 1 0
BITMAP
0560570000
004B600000
0000000000
AFFFFDB500
A100014C60
A1000001C0
A1000000A1
A1000000A1
A1000001C0
A100015C60
AFFFFEB500
ENDCHAR
STARTCHAR Dcroat
ENCODING 272
SWIDTH 910 0
DWIDTH 11 0
BBX 11 8 0 0
BITMAP
0AFFFEDA4000
0A100025C600
0A1000001C00
CFFFF6000A20
0A1000000A20
0A1000001C00
0A100015C600
0AFFFFDA4000
ENDCHAR
STARTCHAR dcroat
ENCODING 273
SWIDTH 910 0
DWIDTH 11 0
BBX 11 8 0 0
BITMAP
0AFFFEDA4000
0A100025C600
0A1000001C00
CFFFF6000A20
0A1000000A20
0A1000001C00
0A100015C600
0AFFFFDA4000
ENDCHAR
STARTCHAR Emacron
ENCODING 274
SWIDTH 754 0
DWIDTH 9 0
BBX 8 10 1 0
BITMAP
00EFF400
00000000
AFFFFFF1
A2000000
A2000000
AFFFFFC0
A2000000
A2000000
A2000000
AFFFFFF2
ENDCHAR
STARTCHAR emacron
ENCODING 275
SWIDTH 910 0
DWIDTH 11 0
BBX 11 10 0 0
BITMAP
0002FFF10000
000000000000
0029EFEB4000
04B52014B500
0A0000000A00
2FFFFFFFFF10
2A0000000000
0D3000000000
04E720000000
0029DFFFF700
ENDCHAR
STARTCHAR Ebreve
ENCODING 276
SWIDTH 754 0
DWIDTH 9 0
BBX 8 11 1 0
BITMAP
03915800
008EB100
00000000
AFFFFFF1
A2000000
A2000000
AFFFFFC0
A2000000
A2000000
A2000000
AFFFFFF2
ENDCHAR
STARTCHAR ebreve
ENCODING 277
SWIDTH 910 0
DWIDTH 11 0
BBX 11 11 0 0
BITMAP
000671750000
0000AEA00000
000000000000
0029EFEB4000
04B52014B500
0A0000000A00
2FFFFFFFFF10
2A0000000000
0D3000000000
04E720000000
0029DFFFF700
ENDCHAR
STARTCHAR Edotaccent
ENCODING 278
SWIDTH 754 0
DWIDTH 9 0
BBX 8 10 1 0
BITMAP
000C2000
00000000
AFFFFFF1
A2000000
A2000000
AFFFFFC0
A2000000
A2000000
A2000000
AFFFFFF2
ENDCHAR
STARTCHAR edotaccent
ENCODING 279
SWIDTH 910 0
DWIDTH 11 0
BBX 11 10 0 0
BITMAP
00000E000000
000000000000
0029EFEB4000
04B52014B500
0A0000000A00
2FFFFFFFFF10
2A0000000000
0D3000000000
04E720000000
0029DFFFF700
ENDCHAR
STARTCHAR Eogonek
ENCODING 280
SWIDTH 754 0
DWIDTH 9 0
BBX 8 10 1 -2
BITMAP
AFFFFFF1
A2000000
A2000000
AFFFFFC0
A2000000
A2000000
A2000000
AFFFFFF2
00002710
00004EF2
ENDCHAR
STARTCHAR eogonek
ENCODING 281
SWIDTH 910 0
DWIDTH 11 0
BBX 11 10 0 -2
BITMAP
0029EFEB4000
04B52014B500
0A0000000A00
2FFFFFFFFF10
2A0000000000
0D3000000000
04E720000000
0029DFFFF700
000000057000
00000006EF00
ENDCHAR
STARTCHAR Ecaron
ENCODING 282
SWIDTH 754 0
DWIDTH 9 0
BBX 8 11 1 0
BITMAP
04704700
003B6000
00000000
AFFFFFF1
A2000000
A2000000
AFFFFFC0
A2000000
A2000000
A2000000
AFFFFFF2
ENDCHAR
STARTCHAR ecaron
ENCODING 283
SWIDTH 910 0
DWIDTH 11 0
BBX 11 11 0 0
BITMAP
000650660000
00005B400000
000000000000
0029EFEB4000
04B52014B500
0A0000000A00
2FFFFFFFFF10
2A0000000000
0D3000000000
04E720000000
0029DFFFF700
ENDCHAR
STARTCHAR Gcircumflex
ENCODING 284
SWIDTH 910 0
DWIDTH 11 0
BBX 10 11 0 0
BITMAP
00001A9100
0002812910
0000000000
0028DEFD82
04D7210269
0C20000000
2900000000
290001FFFE
0C2000000B
04D720012C
0028CEFEC7
ENDCHAR
STARTCHAR gcircumflex
ENCODING 285
SWIDTH 910 0
DWIDTH 11 0
BBX 10 11 0 0
BITMAP
00001A9100
0002812910
0000000000
0028DEFD82
04D7210269
0C20000000
2900000000
290001FFFE
0C2000000B
04D720012C
0028CEFEC7
ENDCHAR
STARTCHAR Gbreve
ENCODING 286
SWIDTH 910 0
DWIDTH 11 0
BBX 10 11 0 0
BITMAP
0000B22B00
00005ED300
0000000000
0028DEFD82
04D7210269
0C20000000
2900000000
290001FFFE
0C2000000B
04D720012C
0028CEFEC7
ENDCHAR
STARTCHAR gbreve
ENCODING 287
SWIDTH 910 0
DWIDTH 11 0
BBX 10 11 0 0
BITMAP
0000B22B00
00005ED300
0000000000
0028DEFD82
04D7210269
0C20000000
2900000000
290001FFFE
0C2000000B
04D720012C
0028CEFEC7
ENDCHAR
STARTCHAR Gdotaccent
ENCODING 288
SWIDTH 910 0
DWIDTH 11 0
BBX 10 10 0 0
BITMAP
0000086000
0000000000
0028DEFD82
04D7210269
0C20000000
2900000000
290001FFFE
0C2000000B
04D720012C
0028CEFEC7
ENDCHAR
STARTCHAR gdotaccent
ENCODING 289
SWIDTH 910 0
DWIDTH 11 0
BBX 10 10 0 0
BITMAP
0000086000
0000000000
0028DEFD82
04D7210269
0C20000000
2900000000
290001FFFE
0C2000000B
04D720012C
0028CEFEC7
ENDCHAR
STARTCHAR Gcommaaccent
ENCODING 290
SWIDTH 910 0
DWIDTH 11 0
BBX 10 11 0 -3
BITMAP
0028DEFD82
04D7210269
0C20000000
2900000000
290001FFFE
0C2000000B
04D720012C
0028CEFEC7
0000000000
0000057000
0000073000
ENDCHAR
STARTCHAR gcommaaccent
ENCODING 291
SWIDTH 910 0
DWIDTH 11 0
BBX 10 11 0 -3
BITMAP
0028DEFD82
04D7210269
0C20000000
2900000000
290001FFFE
0C2000000B
04D720012C
0028CEFEC7
0000000000
0000057000
0000073000
ENDCHAR
STARTCHAR Hcircumflex
ENCODING 292
SWIDTH 949 0
DWIDTH 11 0
BBX 9 11 1 0
BITMAP
0003B70000
0047048000
0000000000
A1000000B0
A1000000B0
A1000000B0
AFFFFFFFF0
A1000000B0
A1000000B0
A1000000B0
A1000000B0
ENDCHAR
STARTCHAR hcircumflex
ENCODING 293
SWIDTH 949 0
DWIDTH 11 0
BBX 9 11 1 0
BITMAP
0003B70000
0047048000
0000000000
A1000000B0
A1000000B0
A1000000B0
AFFFFFFFF0
A1000000B0
A1000000B0
A1000000B0
A1000000B0
ENDCHAR
STARTCHAR Hbar
ENCODING 294
SWIDTH 949 0
DWIDTH 11 0
BBX 12 8 0 0
BITMAP
0A1000000B00
AFFFFFFFFFF1
0A1000000B00
0AFFFFFFFF00
0A1000000B00
0A1000000B00
0A1000000B00
0A1000000B00
ENDCHAR
STARTCHAR hbar
ENCODING 295
SWIDTH 949 0
DWIDTH 11 0
BBX 12 8 0 0
BITMAP
0A1000000B00
AFFFFFFFFFF1
0A1000000B00
0AFFFFFFFF00
0A1000000B00
0A1000000B00
0A1000000B00
0A1000000B00
ENDCHAR
STARTCHAR Itilde
ENCODING 296
SWIDTH 287 0
DWIDTH 3 0
BBX 5 11 -1 0
BITMAP
1DA290
456E60
000000
00A100
00A100
00A100
00A100
00A100
00A100
00A100
00A100
ENDCHAR
STARTCHAR itilde
ENCODING 297
SWIDTH 287 0
DWIDTH 3 0
BBX 5 11 -1 0
BITMAP
0CA290
466E60
000000
00A100
00A100
00A100
00A100
00A100
00A100
00A100
00A100
ENDCHAR
STARTCHAR Imacron
ENCODING 298
SWIDTH 287 0
DWIDTH 3 0
BBX 4 10 0 0
BITMAP
DFF5
0000
0A10
0A10
0A10
0A10
0A10
0A10
0A10
0A10
ENDCHAR
STARTCHAR imacron
ENCODING 299
SWIDTH 287 0
DWIDTH 3 0
BBX 4 10 0 0
BITMAP
DFF5
0000
0A10
0A10
0A10
0A10
0A10
0A10
0A10
0A10
ENDCHAR
STARTCHAR Ibreve
ENCODING 300
SWIDTH 287 0
DWIDTH 3 0
BBX 5 11 -1 0
BITMAP
3A1490
08EC20
000000
00A100
00A100
00A100
00A100
00A100
00A100
00A100
00A100
ENDCHAR
STARTCHAR ibreve
ENCODING 301
SWIDTH 287 0
DWIDTH 3 0
BBX 5 11 -1 0
BITMAP
2A1490
07EC20
000000
00A100
00A100
00A100
00A100
00A100
00A100
00A100
00A100
ENDCHAR
STARTCHAR Iogonek
ENCODING 302
SWIDTH 287 0
DWIDTH 3 0
BBX 3 10 0 -2
BITMAP
0A10
0A10
0A10
0A10
0A10
0A10
0A10
0A10
6400
8FD0
ENDCHAR
STARTCHAR iogonek
ENCODING 303
SWIDTH 287 0
DWIDTH 3 0
BBX 3 10 0 -2
BITMAP
0A10
0A10
0A10
0A10
0A10
0A10
0A10
0A10
6400
8FD0
ENDCHAR
STARTCHAR Idotaccent
ENCODING 304
SWIDTH 287 0
DWIDTH 3 0
BBX 2 10 1 0
BITMAP
B3
00
A1
A1
A1
A1
A1
A1
A1
A1
ENDCHAR
STARTCHAR dotlessi
ENCODING 305
SWIDTH 287 0
DWIDTH 3 0
BBX 2 8 1 0
BITMAP
A1
A1
A1
A1
A1
A1
A1
A1
ENDCHAR
STARTCHAR IJ
ENCODING 306
SWIDTH 877 0
DWIDTH 11 0
BBX 9 8 1 0
BITMAP
A100000830
A100000830
A100000830
A100000830
A100000830
A100000930
A100015D00
A18FFEB300
ENDCHAR
STARTCHAR ij
ENCODING 307
SWIDTH 877 0
DWIDTH 11 0
BBX 9 8 1 0
BITMAP
A100000830
A100000830
A100000830
A100000830
A100000830
A100000930
A100015D00
A18FFEB300
ENDCHAR
STARTCHAR Jcircumflex
ENCODING 308
SWIDTH 590 0
DWIDTH 7 0
BBX 8 11 0 0
BITMAP
00005B40
00075065
00000000
00000B00
00000B00
00000B00
00000B00
00000B00
00001B00
0002A700
FFFD8000
ENDCHAR
STARTCHAR jcircumflex
ENCODING 309
SWIDTH 590 0
DWIDTH 7 0
BBX 8 11 0 0
BITMAP
00005B40
00075065
00000000
00000B00
00000B00
00000B00
00000B00
00000B00
00001B00
0002A700
FFFD8000
ENDCHAR
STARTCHAR Kcommaaccent
ENCODING 310
SWIDTH 806 0
DWIDTH 10 0
BBX 9 11 1 -3
BITMAP
A100018600
A100692000
A12A500000
A8A1000000
A5B4000000
A108910000
A1003B5000
A100008910
0000000000
0008400000
0009000000
ENDCHAR
STARTCHAR kcommaaccent
ENCODING 311
SWIDTH 867 0
DWIDTH 10 0
BBX 9 11 1 -3
BITMAP
A100000B10
A100007800
A1025A7000
AFFFD40000
A1025BA100
A100006B00
A100000940
A100000380
0000000000
0003900000
0004600000
ENDCHAR
STARTCHAR kgreenlandic
ENCODING 312
SWIDTH 867 0
DWIDTH 10 0
BBX 9 8 1 0
BITMAP
A100000B10
A100007800
A1025A7000
AFFFD40000
A1025BA100
A100006B00
A100000940
A100000380
ENDCHAR
STARTCHAR Lacute
ENCODING 313
SWIDTH 701 0
DWIDTH 8 0
BBX 7 11 1 0
BITMAP
06800000
96000000
00000000
A1000000
A1000000
A1000000
A1000000
A1000000
A1000000
A1000000
AFFFFFF0
ENDCHAR
STARTCHAR lacute
ENCODING 314
SWIDTH 709 0
DWIDTH 9 0
BBX 8 11 1 0
BITMAP
06800000
96000000
00000000
A1000000
A1000000
A1000000
A1000000
A1000000
92000000
79200000
19EFFFF6
ENDCHAR
STARTCHAR Lcommaaccent
ENCODING 315
SWIDTH 701 0
DWIDTH 8 0
BBX 7 11 1 -3
BITMAP
A1000000
A1000000
A1000000
A1000000
A1000000
A1000000
A1000000
AFFFFFF0
00000000
000A2000
000A0000
ENDCHAR
STARTCHAR lcommaaccent
ENCODING 316
SWIDTH 709 0
DWIDTH 9 0
BBX 8 11 1 -3
BITMAP
A1000000
A1000000
A1000000
A1000000
A1000000
92000000
79200000
19EFFFF6
00000000
00066000
00082000
ENDCHAR
STARTCHAR Lcaron
ENCODING 317
SWIDTH 701 0
DWIDTH 8 0
BBX 7 8 1 0
BITMAP
A1008400
A100A000
A1000000
A1000000
A1000000
A1000000
A1000000
AFFFFFF0
ENDCHAR
STARTCHAR lcaron
ENCODING 318
SWIDTH 709 0
DWIDTH 9 0
BBX 8 8 1 0
BITMAP
A1008400
A100A000
A1000000
A1000000
A1000000
92000000
79200000
19EFFFF6
ENDCHAR
STARTCHAR Ldot
ENCODING 319
SWIDTH 701 0
DWIDTH 8 0
BBX 7 8 1 0
BITMAP
A1000000
A1000000
A1000000
A1009600
A1000000
A1000000
A1000000
AFFFFFF0
ENDCHAR
STARTCHAR ldotaccent
ENCODING 320
SWIDTH 709 0
DWIDTH 9 0
BBX 8 8 1 0
BITMAP
A1000000
A1000000
A1000000
A1007800
A1000000
92000000
79200000
19EFFFF6
ENDCHAR
STARTCHAR Lslash
ENCODING 321
SWIDTH 701 0
DWIDTH 8 0
BBX 8 8 0 0
BITMAP
0A100000
0A100000
0A100000
0A7A4000
8D500000
0A100000
0A100000
0AFFFFFF
ENDCHAR
STARTCHAR lslash
ENCODING 322
SWIDTH 709 0
DWIDTH 9 0
BBX 9 8 0 0
BITMAP
0A10000000
0A10000000
0A10000000
0A7A400000
8D50000000
0920000000
0791000000
019EFFFF60
ENDCHAR
STARTCHAR Nacute
ENCODING 323
SWIDTH 936 0
DWIDTH 11 0
BBX 9 11 1 0
BITMAP
0000077000
0000A50000
0000000000
AA000000B0
A7900000B0
A1690000B0
A1069000B0
A1006900B0
A1000690B0
A1000069B0
A1000006D0
ENDCHAR
STARTCHAR nacute
ENCODING 324
SWIDTH 933 0
DWIDTH 11 0
BBX 9 11 1 0
BITMAP
0000185000
0001A40000
0000000000
A139DFD910
ABC6202990
A6000000C0
A1000000B0
A1000000B0
A1000000B0
A1000000B0
A1000000B0
ENDCHAR
STARTCHAR Ncommaaccent
ENCODING 325
SWIDTH 936 0
DWIDTH 11 0
BBX 9 11 1 -3
BITMAP
AA000000B0
A7900000B0
A1690000B0
A1069000B0
A1006900B0
A1000690B0
A1000069B0
A1000006D0
0000000000
0000B10000
0000A00000
ENDCHAR
STARTCHAR ncommaaccent
ENCODING 326
SWIDTH 933 0
DWIDTH 11 0
BBX 9 11 1 -3
BITMAP
A139DFD910
ABC6202990
A6000000C0
A1000000B0
A1000000B0
A1000000B0
A1000000B0
A1000000B0
0000000000
0000B00000
0000A00000
ENDCHAR
STARTCHAR Ncaron
ENCODING 327
SWIDTH 936 0
DWIDTH 11 0
BBX 9 11 1 0
BITMAP
0056057000
0004B60000
0000000000
AA000000B0
A7900000B0
A1690000B0
A1069000B0
A1006900B0
A1000690B0
A1000069B0
A1000006D0
ENDCHAR
STARTCHAR ncaron
ENCODING 328
SWIDTH 933 0
DWIDTH 11 0
BBX 9 11 1 0
BITMAP
0065066000
0005B40000
0000000000
A139DFD910
ABC6202990
A6000000C0
A1000000B0
A1000000B0
A1000000B0
A1000000B0
A1000000B0
ENDCHAR
STARTCHAR napostrophe
ENCODING 329
SWIDTH 1025 0
DWIDTH 12 0
BBX 11 8 0 0
BITMAP
A18329DEE910
A08BC62017A0
0087000000C0
0083000000B0
0083000000B0
0083000000B0
0083000000B0
0083000000B0
ENDCHAR
STARTCHAR Eng
ENCODING 330
SWIDTH 936 0
DWIDTH 11 0
BBX 9 8 1 0
BITMAP
AB100000B0
A4B40000B0
A1097000B0
A1005A10B0
A10002B4B0
A1000019C0
A100001590
A106FFEA10
ENDCHAR
STARTCHAR eng
ENCODING 331
SWIDTH 933 0
DWIDTH 11 0
BBX 9 8 1 0
BITMAP
A139DFD910
ABC6201890
A6000000C0
A1000000B0
A1000000B0
A1000000B0
A100001790
A104FFEA10
ENDCHAR
STARTCHAR Omacron
ENCODING 332
SWIDTH 983 0
DWIDTH 12 0
BBX 11 10 0 0
BITMAP
0000AFF80000
000000000000
0029DFEC8200
04D620027D20
0C10000003B0
2900000000B0
2900000000B0
0C10000003B0
05D620027D30
0029DEEC8100
ENDCHAR
STARTCHAR omacron
ENCODING 333
SWIDTH 983 0
DWIDTH 12 0
BBX 11 10 0 0
BITMAP
0000AFF80000
000000000000
0029DFEC8200
04D620027D20
0C10000003B0
2900000000B0
2900000000B0
0C10000003B0
05D620027D30
0029DEEC8100
ENDCHAR
STARTCHAR Obreve
ENCODING 334
SWIDTH 983 0
DWIDTH 12 0
BBX 11 11 0 0
BITMAP
0000B22B0000
00005ED30000
000000000000
0029DFEC8200
04D620027D20
0C10000003B0
2900000000B0
2900000000B0
0C10000003B0
05D620027D30
0029DEEC8100
ENDCHAR
STARTCHAR obreve
ENCODING 335
SWIDTH 983 0
DWIDTH 12 0
BBX 11 11 0 0
BITMAP
0000B22B0000
00005ED30000
000000000000
0029DFEC8200
04D620027D20
0C10000003B0
2900000000B0
2900000000B0
0C10000003B0
05D620027D30
0029DEEC8100
ENDCHAR
STARTCHAR Ohungarumlaut
ENCODING 336
SWIDTH 983 0
DWIDTH 12 0
BBX 11 11 0 0
BITMAP
000009283000
000075650000
000000000000
0029DFEC8200
04D620027D20
0C10000003B0
2900000000B0
2900000000B0
0C10000003B0
05D620027D30
0029DEEC8100
ENDCHAR
STARTCHAR ohungarumlaut
ENCODING 337
SWIDTH 983 0
DWIDTH 12 0
BBX 11 11 0 0
BITMAP
000009283000
000075650000
000000000000
0029DFEC8200
04D620027D20
0C10000003B0
2900000000B0
2900000000B0
0C10000003B0
05D620027D30
0029DEEC8100
ENDCHAR
STARTCHAR OE
ENCODING 338
SWIDTH 1338 0
DWIDTH 16 0
BBX 16 8 0 0
BITMAP
0029DFFFFFFFFFF1
04D62101B2000000
0C200000A2000000
29000000AFFFFFC0
29000000A2000000
0C200000A2000000
05D62001A2000000
0029DEFFFFFFFFF2
ENDCHAR
STARTCHAR oe
ENCODING 339
SWIDTH 1688 0
DWIDTH 20 0
BBX 20 8 0 0
BITMAP
0029DFEC81006CEFD810
04D620027D2A731027B0
0C10000003E400000055
2900000000CFFFFFFFF8
2900000000C200000000
0C10000003EA00000000
05D620027D2BB4100000
0029DEED81006BEFFFE0
ENDCHAR
STARTCHAR Racute
ENCODING 340
SWIDTH 833 0
DWIDTH 10 0
BBX 9 11 1 0
BITMAP
0001860000
001A400000
0000000000
AFFFFE9100
A100027900
A100000B00
A100017900
AFFFFFA100
A100075000
A100009400
A100000B30
ENDCHAR
STARTCHAR racute
ENCODING 341
SWIDTH 609 0
DWIDTH 7 0
BBX 7 11 1 0
BITMAP
0004B000
00681000
00000000
A14BEF40
AAB41110
A7000000
A1000000
A1000000
A1000000
A1000000
A1000000
ENDCHAR
STARTCHAR Rcommaaccent
ENCODING 342
SWIDTH 833 0
DWIDTH 10 0
BBX 9 11 1 -3
BITMAP
AFFFFE9100
A100027900
A100000B00
A100017900
AFFFFFA100
A100075000
A100009400
A100000B30
0000000000
0006600000
0008200000
ENDCHAR
STARTCHAR rcommaaccent
ENCODING 343
SWIDTH 609 0
DWIDTH 7 0
BBX 7 11 1 -3
BITMAP
A14BEF40
AAB41110
A7000000
A1000000
A1000000
A1000000
A1000000
A1000000
00000000
92000000
A0000000
ENDCHAR
STARTCHAR Rcaron
ENCODING 344
SWIDTH 833 0
DWIDTH 10 0
BBX 9 11 1 0
BITMAP
0560560000
004B500000
0000000000
AFFFFE9100
A100027900
A100000B00
A100017900
AFFFFFA100
A100075000
A100009400
A100000B30
ENDCHAR
STARTCHAR rcaron
ENCODING 345
SWIDTH 609 0
DWIDTH 7 0
BBX 7 11 1 0
BITMAP
19228100
01991000
00000000
A14BEF40
AAB41110
A7000000
A1000000
A1000000
A1000000
A1000000
A1000000
ENDCHAR
STARTCHAR Sacute
ENCODING 346
SWIDTH 787 0
DWIDTH 9 0
BBX 8 11 1 0
BITMAP
00007700
000A5000
00000000
3AEFFFD0
C5100000
B4000000
29DB7200
00036AA1
00000067
000013B5
FFFFEC60
ENDCHAR
STARTCHAR sacute
ENCODING 347
SWIDTH 787 0
DWIDTH 9 0
BBX 8 11 1 0
BITMAP
00007700
000A5000
00000000
3AEFFFD0
C5100000
B4000000
29DB7200
00036AA1
00000067
000013B5
FFFFEC60
ENDCHAR
STARTCHAR Scircumflex
ENCODING 348
SWIDTH 787 0
DWIDTH 9 0
BBX 8 11 1 0
BITMAP
003B6000
04704700
00000000
3AEFFFD0
C5100000
B4000000
29DB7200
00036AA1
00000067
000013B5
FFFFEC60
ENDCHAR
STARTCHAR scircumflex
ENCODING 349
SWIDTH 787 0
DWIDTH 9 0
BBX 8 11 1 0
BITMAP
003B6000
04704700
00000000
3AEFFFD0
C5100000
B4000000
29DB7200
00036AA1
00000067
000013B5
FFFFEC60
ENDCHAR
STARTCHAR Scedilla
ENCODING 350
SWIDTH 787 0
DWIDTH 9 0
BBX 8 10 1 -2
BITMAP
3AEFFFD0
C5100000
C4000000
29DB7200
00036AA1
00000067
000013B5
FFFFEC60
000BC000
009FC000
ENDCHAR
STARTCHAR scedilla
ENCODING 351
SWIDTH 787 0
DWIDTH 9 0
BBX 8 10 1 -2
BITMAP
3AEFFFD0
C5100000
C4000000
29DB7200
00036AA1
00000067
000013B5
FFFFEC60
000BC000
009FC000
ENDCHAR
STARTCHAR Scaron
ENCODING 352
SWIDTH 787 0
DWIDTH 9 0
BBX 8 11 1 0
BITMAP
04704700
003B6000
00000000
3AEFFFD0
C5100000
B4000000
29DB7200
00036AA1
00000067
000013B5
FFFFEC60
ENDCHAR
STARTCHAR scaron
ENCODING 353
SWIDTH 787 0
DWIDTH 9 0
BBX 8 11 1 0
BITMAP
04704700
003B6000
00000000
3AEFFFD0
C5100000
B4000000
29DB7200
00036AA1
00000067
000013B5
FFFFEC60
ENDCHAR
STARTCHAR Tcommaaccent
ENCODING 354
SWIDTH 708 0
DWIDTH 9 0
BBX 9 11 0 -3
BITMAP
CFFFFFFF40
0002900000
0002900000
0002900000
0002900000
0002900000
0002900000
0002900000
0000000000
0002A00000
0004600000
ENDCHAR
STARTCHAR tcommaaccent
ENCODING 355
SWIDTH 708 0
DWIDTH 9 0
BBX 9 11 0 -3
BITMAP
CFFFFFFF40
0002900000
0002900000
0002900000
0002900000
0002900000
0002900000
0002900000
0000000000
0002A00000
0004600000
ENDCHAR
STARTCHAR Tcaron
ENCODING 356
SWIDTH 708 0
DWIDTH 9 0
BBX 9 11 0 0
BITMAP
0083174000
0007A20000
0000000000
CFFFFFFF40
0002900000
0002900000
0002900000
0002900000
0002900000
0002900000
0002900000
ENDCHAR
STARTCHAR tcaron
ENCODING 357
SWIDTH 708 0
DWIDTH 9 0
BBX 9 11 0 0
BITMAP
0083174000
0007B30000
0000000000
CFFFFFFF40
0002900000
0002900000
0002900000
0002900000
0002900000
0002900000
0002900000
ENDCHAR
STARTCHAR Tbar
ENCODING 358
SWIDTH 708 0
DWIDTH 9 0
BBX 9 8 0 0
BITMAP
CFFFFFFF40
0002900000
0002900000
0EFFFFF700
0002900000
0002900000
0002900000
0002900000
ENDCHAR
STARTCHAR tbar
ENCODING 359
SWIDTH 708 0
DWIDTH 9 0
BBX 9 8 0 0
BITMAP
CFFFFFFF40
0002900000
0002900000
0EFFFFF700
0002900000
0002900000
0002900000
0002900000
ENDCHAR
STARTCHAR Utilde
ENCODING 360
SWIDTH 891 0
DWIDTH 11 0
BBX 9 11 1 0
BITMAP
004E746000
0092AD1000
0000000000
B000000560
B000000560
B000000560
B000000560
B000000560
A200000760
5C41026D20
05BEFDA300
ENDCHAR
STARTCHAR utilde
ENCODING 361
SWIDTH 931 0
DWIDTH 11 0
BBX 9 11 1 0
BITMAP
002D928000
00647E4000
0000000000
A1000000B0
A1000000B0
A1000000B0
A1000000B0
A1000000B0
A2000004C0
6A2025BCC0
07DFEA40B0
ENDCHAR
STARTCHAR Umacron
ENCODING 362
SWIDTH 891 0
DWIDTH 11 0
BBX 9 10 1 0
BITMAP
004FFF0000
0000000000
B000000560
B000000560
B000000560
B000000560
B000000560
A200000760
5C41026D20
05BEFDA300
ENDCHAR
STARTCHAR umacron
ENCODING 363
SWIDTH 931 0
DWIDTH 11 0
BBX 9 10 1 0
BITMAP
000FFF3000
0000000000
A1000000B0
A1000000B0
A1000000B0
A1000000B0
A1000000B0
A2000004C0
6A2025BCC0
07DFEA40B0
ENDCHAR
STARTCHAR Ubreve
ENCODING 364
SWIDTH 891 0
DWIDTH 11 0
BBX 9 11 1 0
BITMAP
0085194000
001BE90000
0000000000
B000000560
B000000560
B000000560
B000000560
B000000560
A200000760
5C41026D20
05BEFDA300
ENDCHAR
STARTCHAR ubreve
ENCODING 365
SWIDTH 931 0
DWIDTH 11 0
BBX 9 11 1 0
BITMAP
0058167000
0009EB1000
0000000000
A1000000B0
A1000000B0
A1000000B0
A1000000B0
A1000000B0
A2000004C0
6A2025BCC0
07DFEA40B0
ENDCHAR
STARTCHAR Uring
ENCODING 366
SWIDTH 891 0
DWIDTH 11 0
BBX 9 11 1 0
BITMAP
001CF90000
001CF90000
0000000000
B000000560
B000000560
B000000560
B000000560
B000000560
A200000760
5C41026D20
05BEFDA300
ENDCHAR
STARTCHAR uring
ENCODING 367
SWIDTH 931 0
DWIDTH 11 0
BBX 9 11 1 0
BITMAP
000AFC0000
000AFC0000
0000000000
A1000000B0
A1000000B0
A1000000B0
A1000000B0
A1000000B0
A2000004C0
6A2025BCC0
07DFEA40B0
ENDCHAR
STARTCHAR Uhungarumlaut
ENCODING 368
SWIDTH 891 0
DWIDTH 11 0
BBX 9 11 1 0
BITMAP
0004738000
0029291000
0000000000
B000000560
B000000560
B000000560
B000000560
B000000560
A200000760
5C41026D20
05BEFDA300
ENDCHAR
STARTCHAR uhungarumlaut
ENCODING 369
SWIDTH 931 0
DWIDTH 11 0
BBX 9 11 1 0
BITMAP
000291A000
0009292000
0000000000
A1000000B0
A1000000B0
A1000000B0
A1000000B0
A1000000B0
A2000004C0
6A2025BCC0
07DFEA40B0
ENDCHAR
STARTCHAR Uogonek
ENCODING 370
SWIDTH 891 0
DWIDTH 11 0
BBX 9 10 1 -2
BITMAP
B000000560
B000000560
B000000560
B000000560
B000000560
A200000750
6C41026D20
05BEFEA300
0007300000
0008FC0000
ENDCHAR
STARTCHAR uogonek
ENCODING 371
SWIDTH 931 0
DWIDTH 11 0
BBX 10 10 1 -2
BITMAP
A1000000B0
A1000000B0
A1000000B0
A1000000B0
A1000000B0
A2000004C0
6A2025BCC0
07DFEA40B0
0000000820
0000000BF9
ENDCHAR
STARTCHAR Wcircumflex
ENCODING 372
SWIDTH 1266 0
DWIDTH 15 0
BBX 15 11 0 0
BITMAP
0000004B50000000
0000056057000000
0000000000000000
5700001F40000480
0C000077A0000A20
084000B0B1001B00
02A0048057007500
00B10A200B00C000
00571B0008348000
000B6500039A2000
0008D10000BB0000
ENDCHAR
STARTCHAR wcircumflex
ENCODING 373
SWIDTH 1266 0
DWIDTH 15 0
BBX 15 11 0 0
BITMAP
0000004B50000000
0000056057000000
0000000000000000
5700001F40000480
0C000077A0000A20
084000B0B1001B00
02A0048057007500
00B10A200B00C000
00571B0008348000
000B6500039A2000
0008D10000BB0000
ENDCHAR
STARTCHAR Ycircumflex
ENCODING 374
SWIDTH 763 0
DWIDTH 9 0
BBX 9 11 0 0
BITMAP
0004B50000
0056057000
0000000000
3A00000850
0580006700
008503A000
000A5B1000
0001D20000
0000B00000
0000B00000
0000B00000
ENDCHAR
STARTCHAR ycircumflex
ENCODING 375
SWIDTH 911 0
DWIDTH 11 0
BBX 9 11 1 0
BITMAP
0006B30000
0084074000
0000000000
B000000390
B000000390
C100000890
7B3014BB90
06CEEB4390
0000000770
0000139E20
EFFFEC8200
ENDCHAR
STARTCHAR Ydieresis
ENCODING 376
SWIDTH 763 0
DWIDTH 9 0
BBX 9 10 0 0
BITMAP
000D0A3000
0000000000
3A00000850
0580006700
008503A000
000A5B1000
0001D20000
0000B00000
0000B00000
0000B00000
ENDCHAR
STARTCHAR Zacute
ENCODING 377
SWIDTH 728 0
DWIDTH 9 0
BBX 8 11 0 0
BITMAP
00001950
0002A300
00000000
0FFFFFF9
00000070
00000710
00007100
00062000
00630000
05400000
1FFFFFFE
ENDCHAR
STARTCHAR zacute
ENCODING 378
SWIDTH 728 0
DWIDTH 9 0
BBX 8 11 0 0
BITMAP
00001950
0002A300
00000000
0FFFFFF9
00000070
00000710
00007100
00062000
00630000
05400000
1FFFFFFE
ENDCHAR
STARTCHAR Zdotaccent
ENCODING 379
SWIDTH 728 0
DWIDTH 9 0
BBX 8 10 0 0
BITMAP
0000E000
00000000
0FFFFFF9
00000070
00000710
00007100
00062000
00630000
05400000
1FFFFFFE
ENDCHAR
STARTCHAR zdotaccent
ENCODING 380
SWIDTH 728 0
DWIDTH 9 0
BBX 8 10 0 0
BITMAP
0000E000
00000000
0FFFFFF9
00000070
00000710
00007100
00062000
00630000
05400000
1FFFFFFE
ENDCHAR
STARTCHAR Zcaron
ENCODING 381
SWIDTH 728 0
DWIDTH 9 0
BBX 8 11 0 0
BITMAP
00650650
0005B400
00000000
0FFFFFF9
00000070
00000710
00007100
00062000
00630000
05400000
1FFFFFFE
ENDCHAR
STARTCHAR zcaron
ENCODING 382
SWIDTH 728 0
DWIDTH 9 0
BBX 8 11 0 0
BITMAP
00650650
0005B400
00000000
0FFFFFF9
00000070
00000710
00007100
00062000
00630000
05400000
1FFFFFFE
ENDCHAR
STARTCHAR florin
ENCODING 402
SWIDTH 835 0
DWIDTH 10 0
BBX 10 8 0 0
BITMAP
0000009EFA
0000069100
00000A1000
000CFFFC00
0000480000
0000A20000
0016B00000
AFFB200000
ENDCHAR
STARTCHAR AEacute
ENCODING 508
SWIDTH 1172 0
DWIDTH 14 0
BBX 14 11 0 0
BITMAP
0000000005A000
00000000871000
00000000000000
00001DFFFFFFF1
00009793000000
0004A093000000
001B109FFFFFC0
00930093000000
04FFFFF3000000
1C100093000000
A500009FFFFFF3
ENDCHAR
STARTCHAR aeacute
ENCODING 509
SWIDTH 1551 0
DWIDTH 19 0
BBX 18 11 0 0
BITMAP
000000000195000000
000000002A30000000
000000000000000000
08FFFFDA204AEFEA20
00000025C7A41015B3
00000000690000001A
00159BDEFFFFFFFFFE
07C853215800000000
3A0000002D20000000
2D410137CBD6200000
05CEFEB7203ADFFFF4
ENDCHAR
STARTCHAR Oslashacute
ENCODING 510
SWIDTH 983 0
DWIDTH 12 0
BBX 11 12 0 -1
BITMAP
0000004A0000
000007710000
000000003800
0029DFECD200
04D620079D20
0C10003803B0
2900029000B0
29001A1000B0
0C10920003B0
05DA50027D30
004CDFEC8100
00A100000000
ENDCHAR
STARTCHAR oslashacute
ENCODING 511
SWIDTH 983 0
DWIDTH 12 0
BBX 11 12 0 -1
BITMAP
0000004A0000
000007710000
000000003800
0029DFECD200
04D620079D20
0C10003803B0
2900029000B0
29001A1000B0
0C10920003B0
05DA50027D30
004CDFEC8100
00A100000000
ENDCHAR
STARTCHAR dotlessj
ENCODING 567
SWIDTH 590 0
DWIDTH 7 0
BBX 6 8 0 0
BITMAP
00000B
00000B
00000B
00000B
00000B
00001B
0002A7
FFFD80
ENDCHAR
STARTCHAR circumflex
ENCODING 710
SWIDTH 527 0
DWIDTH 6 0
BBX 5 2 1 7
BITMAP
08A200
931830
ENDCHAR
STARTCHAR caron
ENCODING 711
SWIDTH 527 0
DWIDTH 6 0
BBX 5 2 1 7
BITMAP
931830
08A200
ENDCHAR
STARTCHAR breve
ENCODING 728
SWIDTH 527 0
DWIDTH 6 0
BBX 5 2 1 7
BITMAP
A31B10
2DE600
ENDCHAR
STARTCHAR dotaccent
ENCODING 729
SWIDTH 527 0
DWIDTH 6 0
BBX 2 1 2 7
BITMAP
49
ENDCHAR
STARTCHAR ring
ENCODING 730
SWIDTH 527 0
DWIDTH 6 0
BBX 4 2 1 7
BITMAP
2DE6
2DE6
ENDCHAR
STARTCHAR ogonek
ENCODING 731
SWIDTH 527 0
DWIDTH 6 0
BBX 4 2 1 -2
BITMAP
0710
1DF6
ENDCHAR
STARTCHAR tilde
ENCODING 732
SWIDTH 527 0
DWIDTH 6 0
BBX 5 2 1 7
BITMAP
7D5730
92BC00
ENDCHAR
STARTCHAR hungarumlaut
ENCODING 733
SWIDTH 527 0
DWIDTH 6 0
BBX 5 2 1 7
BITMAP
065560
473800
ENDCHAR
STARTCHAR commaaccent
ENCODING 806
SWIDTH 527 0
DWIDTH 6 0
BBX 2 2 2 -3
BITMAP
39
55
ENDCHAR
STARTCHAR mu
ENCODING 956
SWIDTH 705 0
DWIDTH 8 0
BBX 8 8 0 -2
BITMAP
02900074
056000A1
083000C0
0B0003B0
0D714B90
2AAEA2A0
56000000
73000000
ENDCHAR
STARTCHAR Wgrave
ENCODING 7808
SWIDTH 1266 0
DWIDTH 15 0
BBX 15 11 0 0
BITMAP
0000049100000000
0000003A20000000
0000000000000000
5700001F40000480
0C000077A0000A20
084000B0B1001B00
02A0048057007500
00B10A200B00C000
00571B0008348000
000B6500039A2000
0008D10000BB0000
ENDCHAR
STARTCHAR wgrave
ENCODING 7809
SWIDTH 1266 0
DWIDTH 15 0
BBX 15 11 0 0
BITMAP
0000049100000000
0000003A20000000
0000000000000000
5700001F40000480
0C000077A0000A20
084000B0B1001B00
02A0048057007500
00B10A200B00C000
00571B0008348000
000B6500039A2000
0008D10000BB0000
ENDCHAR
STARTCHAR Wacute
ENCODING 7810
SWIDTH 1266 0
DWIDTH 15 0
BBX 15 11 0 0
BITMAP
0000000077000000
0000000A50000000
0000000000000000
5700001F40000480
0C000077A0000A20
084000B0B1001B00
02A0048057007500
00B10A200B00C000
00571B0008348000
000B6500039A2000
0008D10000BB0000
ENDCHAR
STARTCHAR wacute
ENCODING 7811
SWIDTH 1266 0
DWIDTH 15 0
BBX 15 11 0 0
BITMAP
0000000077000000
0000000A50000000
0000000000000000
5700001F40000480
0C000077A0000A20
084000B0B1001B00
02A0048057007500
00B10A200B00C000
00571B0008348000
000B6500039A2000
0008D10000BB0000
ENDCHAR
STARTCHAR Wdieresis
ENCODING 7812
SWIDTH 1266 0
DWIDTH 15 0
BBX 15 10 0 0
BITMAP
000000D0A3000000
0000000000000000
5700001F40000480
0C000077A0000A20
084000B0B1001B00
02A0048057007500
00B10A200B00C000
00571B0008348000
000B6500039A2000
0008D10000BB0000
ENDCHAR
STARTCHAR wdieresis
ENCODING 7813
SWIDTH 1266 0
DWIDTH 15 0
BBX 15 10 0 0
BITMAP
000000D0A3000000
0000000000000000
5700001F40000480
0C000077A0000A20
084000B0B1001B00
02A0048057007500
00B10A200B00C000
00571B0008348000
000B6500039A2000
0008D10000BB0000
ENDCHAR
STARTCHAR Ygrave
ENCODING 7922
SWIDTH 763 0
DWIDTH 9 0
BBX 9 11 0 0
BITMAP
0049100000
0003A20000
0000000000
3A00000850
0580006700
008503A000
000A5B1000
0001D20000
0000B00000
0000B00000
0000B00000
ENDCHAR
STARTCHAR ygrave
ENCODING 7923
SWIDTH 911 0
DWIDTH 11 0
BBX 9 11 1 0
BITMAP
0087000000
0005A00000
0000000000
B000000390
B000000390
C100000890
7B3014BB90
06CEEB4390
0000000770
0000139E20
EFFFEC8200
ENDCHAR
STARTCHAR endash
ENCODING 8211
SWIDTH 419 0
DWIDTH 5 0
BBX 5 1 0 4
BITMAP
CFFFC0
ENDCHAR
STARTCHAR emdash
ENCODING 8212
SWIDTH 1000 0
DWIDTH 12 0
BBX 12 1 0 4
BITMAP
FFFFFFFFFFFF
ENDCHAR
STARTCHAR quoteleft
ENCODING 8216
SWIDTH 163 0
DWIDTH 2 0
BBX 2 2 0 6
BITMAP
27
75
ENDCHAR
STARTCHAR quoteright
ENCODING 8217
SWIDTH 163 0
DWIDTH 2 0
BBX 2 2 0 6
BITMAP
57
82
ENDCHAR
STARTCHAR quotesinglbase
ENCODING 8218
SWIDTH 163 0
DWIDTH 2 0
BBX 2 2 0 -1
BITMAP
57
82
ENDCHAR
STARTCHAR quotedblleft
ENCODING 8220
SWIDTH 303 0
DWIDTH 4 0
BBX 4 2 0 6
BITMAP
2773
75B0
ENDCHAR
STARTCHAR quotedblright
ENCODING 8221
SWIDTH 303 0
DWIDTH 4 0
BBX 4 2 0 6
BITMAP
57A2
82A0
ENDCHAR
STARTCHAR quotedblbase
ENCODING 8222
SWIDTH 303 0
DWIDTH 4 0
BBX 4 2 0 -1
BITMAP
57A2
82A0
ENDCHAR
STARTCHAR dagger
ENCODING 8224
SWIDTH 500 0
DWIDTH 6 0
BBX 4 8 1 0
BITMAP
0550
0550
EFFE
0550
0550
0550
0550
0550
ENDCHAR
STARTCHAR daggerdbl
ENCODING 8225
SWIDTH 500 0
DWIDTH 6 0
BBX 4 8 1 0
BITMAP
0550
0550
EFFE
0550
0550
EFFE
0550
0550
ENDCHAR
STARTCHAR bullet
ENCODING 8226
SWIDTH 352 0
DWIDTH 4 0
BBX 3 2 1 3
BITMAP
BD20
CD20
ENDCHAR
STARTCHAR ellipsis
ENCODING 8230
SWIDTH 555 0
DWIDTH 7 0
BBX 7 1 0 0
BITMAP
693D0E10
ENDCHAR
STARTCHAR perthousand
ENCODING 8240
SWIDTH 1401 0
DWIDTH 17 0
BBX 17 8 0 0
BITMAP
08ED6001A100000000
4912B1092000000000
4911B1750000000000
08ED64700000000000
0000292BEC208EE600
0001A19404A3911B20
000A209404A3911B20
0074002BEC208EE600
ENDCHAR
STARTCHAR guilsinglleft
ENCODING 8249
SWIDTH 257 0
DWIDTH 3 0
BBX 3 5 0 2
BITMAP
0360
1B10
7500
1B10
0460
ENDCHAR
STARTCHAR guilsinglright
ENCODING 8250
SWIDTH 257 0
DWIDTH 3 0
BBX 3 5 0 2
BITMAP
4500
0B20
0390
0B20
4500
ENDCHAR
STARTCHAR fraction
ENCODING 8260
SWIDTH 200 0
DWIDTH 2 0
BBX 8 8 -3 0
BITMAP
00000066
00000390
00001A00
0000A100
00093000
00660000
03900000
2A000000
ENDCHAR
STARTCHAR Euro
ENCODING 8364
SWIDTH 833 0
DWIDTH 10 0
BBX 10 8 0 0
BITMAP
0005CEEB50
008A3113A1
02A0000000
9FFFFFF100
0740000000
9FFFFF7000
02B51013A1
0029DFEB50
ENDCHAR
STARTCHAR trademark
ENCODING 8482
SWIDTH 773 0
DWIDTH 9 0
BBX 9 4 0 4
BITMAP
AFF7900C10
0714924910
0714566710
0714465710
ENDCHAR
STARTCHAR partialdiff
ENCODING 8706
SWIDTH 790 0
DWIDTH 9 0
BBX 9 8 0 0
BITMAP
004FFEB500
0000014D30
0000000390
018DFD93B0
0C62015CA0
4800000750
1C41139A00
03BEFC7000
ENDCHAR
STARTCHAR minus
ENCODING 8722
SWIDTH 634 0
DWIDTH 8 0
BBX 6 1 1 4
BITMAP
FFFFF9
ENDCHAR
STARTCHAR uni2215
ENCODING 8725
SWIDTH 200 0
DWIDTH 2 0
BBX 8 8 -3 0
BITMAP
00000066
00000390
00001A00
0000A100
00093000
00660000
03900000
2A000000
ENDCHAR
STARTCHAR approxequal
ENCODING 8776
SWIDTH 634 0
DWIDTH 8 0
BBX 7 4 0 3
BITMAP
09EA3160
1616CE40
09EA3160
1616CE40
ENDCHAR
STARTCHAR notequal
ENCODING 8800
SWIDTH 634 0
DWIDTH 8 0
BBX 6 7 1 1
BITMAP
000A10
000A00
FFFFF9
009200
FFFFF9
037000
083000
ENDCHAR
STARTCHAR lessequal
ENCODING 8804
SWIDTH 634 0
DWIDTH 8 0
BBX 7 6 0 1
BITMAP
00004980
038DA510
1F810000
038DA510
00004980
0FFFFF90
ENDCHAR
STARTCHAR greaterequal
ENCODING 8805
SWIDTH 634 0
DWIDTH 8 0
BBX 6 6 1 1
BITMAP
C72000
27CB61
0003CB
27CB61
C72000
FFFFF9
ENDCHAR
STARTCHAR fi
ENCODING 64257
SWIDTH 1104 0
DWIDTH 13 0
BBX 11 8 1 0
BITMAP
06CEFFFF10B0
5C41000000B0
9300000000B0
A100000000B0
AFFFFFFF00B0
A100000000B0
A100000000B0
A100000000B0
ENDCHAR
STARTCHAR fl
ENCODING 64258
SWIDTH 1527 0
DWIDTH 18 0
BBX 18 8 1 0
BITMAP
06CEFFFF10B0000000
5C41000000B0000000
9300000000B0000000
A100000000B0000000
AFFFFFFF00B0000000
A100000000B0000000
A100000000A7100000
A1000000002AEFFFF3
ENDCHAR
STARTCHAR .notdef
ENCODING -1
SWIDTH 1000 0
DWIDTH 12 0
BBX 1 1 0 0
BITMAP
00
ENDCHAR
ENDFONT
